<svg xmlns="http://www.w3.org/2000/svg" width="1704" height="271" viewBox="0 0 1704 271" fill="#fff">
<g transform="translate(-1211.4,3.5)"><g transform="translate(0,1024) scale(0.1,-0.1)"><path d="M12532 9465 c-18 -8 -47 -25 -64 -37 -18 -12 -28 -17 -25 -11 4 7 3 14 -3 18 -15 9 -102 -85 -124 -134 -13 -28 -22 -38 -27 -29 -5 8 -11 4 -18 -15 -6 -16 -11 -35 -11 -43 0 -20 -18 -18 -23 4 -3 13 -6 11 -15 -11 -14 -34 -16 -149 -3 -197 10 -34 9 -34 -6 -12 -20 29 -33 28 -33 -3 0 -36 27 -95 57 -127 30 -31 25 -36 -13 -12 -13 9 -27 14 -30 11 -7 -7 21 -60 41 -77 12 -10 13 -15 3 -21 -17 -11 15 -45 72 -75 42 -22 43 -23 17 -24 -66 -1 -1 -62 92 -86 44 -11 45 -12 19 -19 -63 -16 -4 -48 80 -43 28 2 52 0 52 -4 0 -5 -4 -8 -10 -8 -5 0 -10 -5 -10 -11 0 -11 54 -8 98 6 29 10 29 -7 -2 -48 -37 -51 -43 -90 -8 -55 22 22 12 -2 -23 -58 -38 -59 -42 -69 -22 -61 14 5 39 -17 30 -27 -10 -10 -25 -7 -18 4 9 14 -1 12 -35 -5 -37 -19 -39 -35 -5 -35 14 0 25 -2 25 -5 0 -14 -55 -55 -74 -55 -32 0 -47 -14 -56 -51 -24 -99 -44 -159 -71 -223 -53 -124 -49 -225 12 -285 26 -27 38 -31 82 -31 79 1 125 48 112 116 -5 28 0 43 26 82 39 57 69 83 89 77 9 -3 46 3 83 14 37 10 67 14 67 10 0 -15 34 -10 59 8 14 9 39 17 58 18 35 1 40 -10 24 -50 -10 -25 -3 -45 15 -45 8 0 14 -4 14 -10 0 -5 39 -50 87 -100 102 -106 122 -114 260 -108 126 5 156 34 118 108 -16 31 -61 60 -93 60 -11 0 -26 14 -37 34 -17 32 -17 34 1 59 11 16 25 24 35 21 12 -3 22 9 37 43 16 38 26 48 45 49 30 2 27 -20 -4 -37 -11 -5 -17 -15 -13 -21 8 -13 73 -5 113 15 34 17 37 16 19 -13 -20 -31 -2 -34 53 -11 46 19 50 19 36 3 -15 -16 -15 -19 2 -29 14 -9 21 -9 31 0 10 10 11 -8 8 -85 -4 -79 -2 -105 13 -137 22 -51 42 -60 133 -67 135 -9 204 29 176 97 -7 17 -24 37 -37 46 -29 19 -29 23 4 95 17 38 29 55 34 47 5 -9 12 -4 20 17 7 16 14 31 16 33 1 2 16 -8 33 -23 36 -30 60 -34 60 -9 0 14 3 14 23 -4 43 -39 102 -58 91 -29 -4 10 7 9 48 -5 29 -10 61 -18 72 -19 16 0 17 -2 5 -16 -12 -14 -8 -15 28 -13 33 3 52 -4 90 -28 60 -38 117 -67 166 -83 68 -22 130 20 130 88 0 48 -25 96 -61 117 -15 9 -45 43 -66 76 -29 45 -102 119 -144 145 -2 1 2 20 9 43 10 35 14 38 24 24 10 -14 13 -12 23 17 16 45 14 62 -3 25 -12 -26 -13 -27 -14 -8 -1 28 -21 41 -21 13 0 -29 -27 -90 -39 -90 -6 0 -11 6 -11 14 0 7 -8 20 -17 27 -17 13 -17 13 -3 -5 14 -18 13 -18 -10 -12 l-25 7 25 -18 c67 -48 149 -124 180 -168 19 -27 56 -70 83 -95 34 -33 49 -56 53 -82 7 -42 -2 -92 -15 -84 -5 3 -14 -1 -21 -9 -7 -8 -28 -15 -48 -15 -33 0 -34 1 -19 18 24 26 21 36 -2 13 -17 -17 -26 -18 -53 -10 -35 10 -135 74 -155 99 -9 12 -14 13 -24 3 -7 -7 -20 -13 -28 -12 -11 0 -12 2 -3 6 25 10 10 21 -40 27 -29 4 -73 16 -97 27 -52 23 -55 23 -47 4 10 -26 -16 -16 -66 26 -43 36 -48 38 -48 19 0 -14 4 -19 13 -14 9 5 9 4 1 -5 -15 -16 -44 1 -65 38 -17 28 -10 60 20 91 12 12 13 11 7 -7 -7 -21 20 -61 32 -48 3 3 -3 11 -13 19 -14 10 -15 15 -5 21 9 5 11 4 6 -3 -4 -7 -2 -12 3 -12 6 0 11 8 11 18 0 14 2 15 10 2 8 -12 10 -11 10 8 0 23 14 30 25 12 7 -11 42 8 50 28 7 19 -14 105 -28 115 -9 6 -9 10 1 14 10 4 8 11 -9 29 -26 28 -36 30 -60 8 -16 -15 -19 -13 -35 34 -12 32 -22 48 -31 45 -7 -3 -13 1 -13 8 -1 9 -6 7 -15 -5 -14 -19 -15 -18 -15 12 0 18 4 32 9 32 5 0 7 31 4 69 -3 45 1 86 11 121 9 30 16 55 16 57 0 1 -25 -9 -57 -22 -31 -14 -58 -23 -60 -21 -5 5 39 89 63 124 16 22 16 22 -17 22 -19 0 -49 -4 -66 -9 -18 -5 -35 -6 -37 -2 -3 4 13 30 35 59 l40 52 -51 0 c-27 0 -50 3 -50 8 0 4 17 21 37 39 l38 32 -32 1 c-35 0 -44 14 -17 24 9 3 33 6 55 6 l40 0 -26 -35 -27 -34 39 5 c21 3 46 7 56 9 19 3 17 -2 -20 -51 -13 -17 -23 -34 -23 -37 0 -10 45 -8 74 3 21 7 26 6 26 -5 0 -8 -3 -15 -8 -15 -10 0 -36 -60 -28 -67 3 -3 16 1 30 10 22 15 24 15 29 -4 5 -20 7 -20 34 -6 54 29 111 49 121 43 5 -3 18 4 28 15 24 26 102 66 165 85 27 8 51 20 55 26 11 18 -152 2 -221 -22 -68 -23 -86 -21 -22 4 60 23 173 46 227 46 34 0 48 5 57 19 7 11 28 25 48 32 26 10 34 17 29 29 -27 63 -29 73 -16 77 9 4 11 18 6 54 -5 35 -3 49 5 49 16 0 5 36 -22 74 l-20 30 32 -23 c18 -13 37 -31 43 -41 7 -10 17 -16 25 -13 7 3 16 -2 19 -11 5 -12 10 -14 19 -6 9 7 16 6 26 -6 9 -11 10 -17 2 -22 -6 -4 -15 -35 -18 -68 -8 -66 -2 -78 54 -115 24 -15 24 -16 6 -42 -10 -15 -15 -30 -12 -34 4 -3 11 7 17 23 9 23 13 25 20 14 15 -23 12 -63 -7 -90 l-17 -24 -11 27 c-10 25 -11 25 -23 7 -10 -16 -9 -18 3 -14 20 8 20 -34 -1 -64 -8 -12 -12 -27 -8 -34 4 -6 3 -8 -3 -5 -6 4 -24 0 -39 -8 -16 -8 -41 -15 -55 -15 -14 0 -34 -7 -45 -16 -19 -15 -19 -15 2 -9 14 4 24 0 28 -10 3 -8 13 -15 23 -15 17 1 17 2 -1 15 -11 8 -18 16 -15 18 10 8 95 30 108 28 8 -1 12 3 8 11 -2 8 8 32 24 53 44 62 61 96 55 111 -3 7 -1 16 4 19 17 10 11 25 -7 18 -11 -4 -14 -3 -9 5 4 7 14 12 22 12 12 0 12 4 2 23 -7 12 -16 24 -19 27 -26 23 -41 100 -18 100 5 0 9 6 9 13 0 16 -60 110 -74 116 -5 2 2 13 15 24 l24 19 -26 -15 c-25 -15 -28 -15 -49 8 -12 13 -19 29 -15 35 4 7 -1 9 -17 5 -16 -4 -29 -1 -37 9 -8 9 -20 16 -27 16 -8 0 -14 4 -14 8 0 14 61 102 71 102 5 0 9 -26 10 -57 l1 -58 10 38 c11 40 4 102 -13 113 -5 3 -51 -22 -100 -55 -87 -59 -118 -74 -103 -50 5 9 -1 10 -22 5 -80 -19 -96 -15 -152 36 -68 64 -97 63 -129 -2 -13 -25 -26 -70 -30 -100 -6 -43 -13 -57 -31 -65 -12 -5 -22 -17 -22 -26 0 -9 -21 -25 -50 -39 -53 -25 -62 -36 -32 -42 31 -6 -57 -58 -100 -58 -21 0 -38 -4 -38 -10 0 -5 4 -10 8 -10 5 0 17 -7 28 -15 18 -15 14 -16 -48 -13 -62 4 -87 -3 -55 -15 6 -2 8 -8 4 -13 -4 -4 -45 4 -90 19 -96 31 -101 32 -94 13 5 -13 1 -12 -29 0 -54 23 -168 47 -172 36 -1 -5 -33 -7 -71 -4 -79 5 -164 -5 -156 -19 4 -5 -1 -9 -10 -9 -41 0 -159 -34 -176 -51 -14 -14 -33 -19 -70 -19 -34 0 -48 -4 -43 -11 4 -8 -1 -9 -17 -4 -46 14 -97 48 -108 71 -11 26 -37 34 -27 9 3 -8 1 -15 -3 -15 -13 0 -21 26 -21 65 0 18 -5 35 -11 37 -8 3 -6 14 5 36 15 29 14 36 -6 33 -13 -2 -9 10 12 36 31 40 24 71 -9 41 -12 -11 -13 -9 -6 7 46 125 49 145 19 145 -8 0 -14 7 -14 16 0 8 -13 20 -30 25 -16 6 -30 18 -30 26 0 12 -8 14 -39 9 -22 -3 -46 -9 -55 -12 -12 -5 -15 -2 -10 10 7 19 -1 20 -44 1z m-7 -30 c-38 -31 -26 -44 15 -15 17 12 50 25 73 28 40 5 41 4 27 -13 -14 -17 -13 -18 3 -12 9 3 31 4 48 0 26 -5 30 -9 25 -29 -6 -22 2 -29 27 -25 19 3 -2 -101 -28 -134 -15 -19 -15 -19 -9 6 3 17 0 32 -11 43 -19 19 -29 20 -55 6 -18 -10 -19 -8 -14 20 6 26 4 30 -14 30 -12 0 -37 -14 -57 -31 -19 -17 -35 -29 -35 -27 0 2 4 18 9 36 15 51 -35 36 -69 -21 l-19 -31 6 37 c7 47 -11 50 -52 7 -29 -30 -51 -31 -41 -1 4 9 -3 5 -15 -9 -19 -23 -19 -22 2 17 12 24 33 53 46 65 l24 23 -10 -28 c-17 -45 -14 -44 37 5 40 39 95 77 112 77 3 0 -8 -11 -25 -24z m1789 -79 c23 -24 49 -58 59 -75 18 -31 18 -31 -4 -31 -16 0 -20 -5 -16 -19 4 -16 -3 -21 -36 -30 -23 -5 -43 -8 -46 -5 -7 7 6 15 28 17 11 1 21 5 21 10 0 9 -61 -1 -71 -12 -14 -13 -21 -71 -9 -71 10 0 9 -4 0 -15 -17 -21 -19 -17 -30 51 -15 93 12 224 47 224 9 0 35 -20 57 -44z m446 -171 c0 -8 -4 -15 -10 -15 -5 0 -7 7 -4 15 4 8 8 15 10 15 2 0 4 -7 4 -15z m-2331 -85 c0 -11 -5 -8 -18 8 -13 15 -21 18 -24 10 -3 -7 -6 -3 -6 9 -1 12 2 29 6 38 5 14 9 11 24 -16 10 -19 18 -41 18 -49z m2188 25 c-7 -19 -36 -16 -47 6 -11 19 -10 21 4 16 9 -4 15 -3 15 1 -4 22 3 25 16 7 9 -10 14 -24 12 -30z m-2271 -27 c6 -18 14 -41 19 -50 4 -11 3 -18 -4 -18 -6 0 -14 14 -17 30 -4 17 -9 30 -13 30 -4 0 -7 9 -8 20 -3 31 11 24 23 -12z m-27 -116 c-11 -5 -58 49 -59 67 0 8 15 -3 34 -25 19 -21 30 -40 25 -42z m2481 26 c0 -15 -4 -29 -8 -32 -4 -2 -6 11 -4 31 3 25 1 34 -7 29 -12 -8 -15 6 -4 17 10 11 23 -14 23 -45z m-230 8 c0 -3 -7 -6 -15 -6 -20 0 -19 -23 3 -50 17 -22 19 -22 36 -5 11 12 16 28 14 46 -3 15 -1 26 4 23 13 -8 9 -71 -6 -83 -19 -16 -74 -2 -91 23 -21 29 -19 51 7 68 18 12 25 13 35 2 7 -7 13 -15 13 -18z m-385 -34 c-6 -5 -23 -14 -40 -20 l-30 -12 24 20 c13 11 30 20 39 20 9 0 12 -3 7 -8z m-220 -32 c-3 -5 -11 -10 -16 -10 -6 0 -7 5 -4 10 3 6 11 10 16 10 6 0 7 -4 4 -10z m195 -71 c0 -5 -4 -9 -10 -9 -5 0 -10 7 -10 16 0 8 5 12 10 9 6 -3 10 -10 10 -16z m-30 8 c0 -2 -15 -16 -32 -33 l-33 -29 29 33 c28 30 36 37 36 29z m-1100 -27 c-8 -5 -19 -10 -25 -10 -5 0 -3 5 5 10 8 5 20 10 25 10 6 0 3 -5 -5 -10z m1240 -115 c0 -5 -55 -35 -65 -35 -3 0 -5 4 -5 10 0 5 15 14 33 19 17 5 33 10 35 10 1 1 2 -1 2 -4z m-97 -20 c-3 -9 -8 -14 -10 -11 -3 3 -2 9 2 15 9 16 15 13 8 -4z m-1303 -5 c0 -5 -8 -10 -17 -10 -15 0 -16 2 -3 10 19 12 20 12 20 0z m37 -13 c-26 -29 -67 -52 -67 -38 0 13 59 61 75 61 10 0 7 -8 -8 -23z m-252 -47 c-3 -5 -11 -10 -16 -10 -6 0 -7 5 -4 10 3 6 11 10 16 10 6 0 7 -4 4 -10z m95 -94 c0 -2 -8 -10 -17 -17 -16 -13 -17 -12 -4 4 13 16 21 21 21 13z m29 -22 c-13 -14 -37 -33 -54 -41 -27 -13 -26 -11 12 26 46 45 81 57 42 15z m151 -18 c0 -2 -8 -10 -17 -17 -16 -13 -17 -12 -4 4 13 16 21 21 21 13z m-80 -11 c0 -5 -67 -35 -77 -35 -3 0 0 6 7 14 10 13 21 17 63 25 4 0 7 -1 7 -4z m1162 -17 c-7 -7 -12 -8 -12 -2 0 14 12 26 19 19 2 -3 -1 -11 -7 -17z m-1252 -71 c-19 -17 -42 -41 -50 -51 -15 -19 -14 -19 13 -2 29 20 36 14 13 -10 -16 -15 -57 -15 -68 0 -4 6 -16 -1 -28 -15 -25 -29 -17 -10 23 49 16 23 31 42 34 42 3 0 1 -6 -4 -12 -6 -7 -13 -22 -16 -33 -7 -19 -6 -19 7 -2 7 9 17 17 22 17 5 1 23 12 39 25 44 36 56 30 15 -8z m-65 -136 c3 -5 1 -12 -5 -16 -5 -3 -10 1 -10 9 0 18 6 21 15 7z m355 -1 c0 -5 -5 -10 -11 -10 -5 0 -7 5 -4 10 3 6 8 10 11 10 2 0 4 -4 4 -10z m861 -37 c-12 -20 -14 -14 -5 12 4 9 9 14 11 11 3 -2 0 -13 -6 -23z m-1284 -34 c-4 -15 -2 -18 7 -10 6 5 18 6 25 2 9 -6 2 -11 -22 -15 -27 -5 -34 -11 -30 -24 3 -13 -5 -22 -31 -32 -20 -7 -36 -18 -36 -23 0 -5 7 -6 16 -3 10 4 13 2 8 -6 -5 -8 -2 -9 9 -5 10 3 17 2 17 -3 0 -5 7 -7 15 -4 17 7 21 -11 5 -21 -5 -3 -10 -12 -9 -18 0 -9 2 -9 6 1 2 6 9 12 15 12 6 0 7 -7 4 -16 -5 -14 -1 -16 24 -11 35 7 39 -5 9 -27 l-21 -14 20 -11 c28 -15 89 -14 95 2 2 6 7 9 11 5 4 -3 3 -16 -4 -27 -8 -16 -8 -21 2 -22 7 0 4 -5 -7 -10 -15 -7 -9 -8 24 -5 30 3 53 13 74 33 16 15 26 21 22 13 -5 -8 -17 -21 -27 -28 -10 -7 -18 -17 -18 -23 0 -14 44 -11 66 6 18 15 18 15 0 8 -13 -4 -17 -3 -12 5 4 7 14 12 22 12 7 0 19 9 26 20 7 11 19 20 26 20 8 0 10 -5 6 -12 -5 -7 -2 -9 9 -5 9 3 17 1 20 -6 2 -7 6 -7 10 -1 3 6 -6 23 -20 39 l-26 28 27 20 c24 17 25 21 11 31 -14 10 -9 15 35 36 28 13 60 24 70 23 11 -1 38 17 61 39 25 24 39 33 35 22 -12 -31 -12 -39 3 -36 10 2 12 -5 8 -28 -9 -42 4 -38 42 15 36 50 56 60 41 19 -13 -32 -13 -47 0 -39 6 4 7 -2 1 -18 -8 -21 -7 -24 12 -23 16 1 21 7 20 24 -2 12 2 23 7 23 20 3 25 4 39 13 11 7 13 5 8 -7 -3 -8 -9 -32 -13 -51 -5 -31 -3 -36 12 -36 10 0 33 14 51 32 l33 32 0 -28 c0 -15 -5 -37 -11 -48 -28 -53 43 -43 97 13 35 37 47 37 39 -1 -12 -54 45 -30 85 36 12 19 25 33 27 30 9 -9 -15 -64 -37 -86 -39 -39 -1 -49 44 -11 10 9 28 30 38 46 20 30 20 25 2 -35 -9 -29 14 -25 49 8 l29 27 -6 -32 c-8 -37 4 -48 30 -28 10 8 14 15 8 15 -6 0 -9 13 -6 30 3 25 7 28 18 19 10 -8 14 -8 14 0 0 6 4 11 10 11 5 0 7 -7 4 -15 -4 -8 -3 -27 0 -41 7 -25 8 -26 26 -9 18 17 19 16 26 -11 9 -39 24 -56 42 -49 8 3 21 -3 28 -12 7 -10 14 -13 14 -6 0 6 -7 19 -16 28 -9 9 -14 18 -11 21 10 11 38 -44 38 -77 1 -19 -12 -62 -30 -99 -38 -81 -39 -95 -1 -127 33 -28 40 -72 15 -93 -12 -10 -15 -10 -15 1 -1 10 -4 9 -11 -3 -7 -14 -24 -17 -82 -17 -160 0 -177 16 -177 176 0 101 0 103 28 117 19 11 22 15 10 16 -20 0 -24 20 -7 37 20 20 -44 9 -81 -13 -19 -12 -46 -25 -60 -29 l-25 -7 24 26 c34 36 19 44 -34 18 -25 -12 -57 -22 -71 -22 -24 0 -24 0 -9 31 19 36 15 44 -17 33 -13 -4 -34 -8 -48 -9 -14 -1 -46 -6 -72 -10 -51 -8 -58 -2 -31 27 26 29 9 32 -65 9 -38 -12 -76 -19 -86 -15 -15 6 -14 10 11 36 l28 30 -45 -26 c-55 -32 -64 -32 -50 -3 9 18 7 17 -12 -5 -13 -16 -28 -28 -34 -28 -6 0 -23 -13 -39 -30 -16 -16 -36 -30 -44 -30 -14 0 -14 2 -1 10 8 5 12 11 10 14 -3 2 -30 -10 -60 -29 -30 -19 -57 -31 -60 -29 -2 3 2 9 10 14 23 15 11 12 -64 -14 -52 -19 -81 -23 -121 -19 -45 5 -53 3 -58 -13 -4 -11 -25 -41 -47 -69 -33 -41 -40 -57 -39 -90 3 -54 -7 -80 -38 -100 -22 -15 -25 -15 -20 -2 5 13 2 13 -24 -1 -27 -16 -31 -16 -66 3 -21 11 -38 27 -38 35 0 8 -6 21 -12 28 -18 19 -16 128 3 177 9 22 35 99 59 170 43 129 44 130 82 143 23 8 50 29 68 52 35 45 39 48 32 19z m458 -9 c-3 -5 -16 -15 -28 -21 -22 -12 -22 -12 -3 10 19 21 43 30 31 11z m579 -56 c3 -8 2 -12 -4 -9 -6 3 -10 10 -10 16 0 14 7 11 14 -7z m-114 -64 c0 -5 -4 -10 -10 -10 -5 0 -10 5 -10 10 0 6 5 10 10 10 6 0 10 -4 10 -10z m373 -15 c4 -8 2 -17 -3 -20 -6 -4 -10 3 -10 14 0 25 6 27 13 6z m62 -75 c3 -5 1 -10 -4 -10 -6 0 -11 5 -11 10 0 6 2 10 4 10 3 0 8 -4 11 -10z m80 -30 c3 -5 1 -10 -4 -10 -6 0 -11 5 -11 10 0 6 2 10 4 10 3 0 8 -4 11 -10z m-318 -72 c-3 -7 -5 -2 -5 12 0 14 2 19 5 13 2 -7 2 -19 0 -25z m-27 -8 c0 -5 -5 -10 -11 -10 -5 0 -7 5 -4 10 3 6 8 10 11 10 2 0 4 -4 4 -10z m-628 -62 c-5 -32 20 -40 37 -11 9 17 10 17 28 0 26 -23 38 -22 57 8 17 27 39 34 30 11 -8 -21 7 -26 49 -17 36 9 37 8 57 -34 16 -33 28 -44 52 -49 44 -9 77 -32 89 -63 11 -29 3 -64 -14 -62 -7 1 -25 -3 -40 -9 -40 -17 -46 -15 -40 11 l6 22 -20 -24 c-18 -22 -23 -23 -89 -16 l-69 7 -92 94 c-51 52 -93 102 -93 111 0 20 25 50 43 50 9 0 12 -10 9 -29z"/><path d="M13046 8013 c-6 -14 -5 -15 5 -6 7 7 10 15 7 18 -3 3 -9 -2 -12 -12z"/><path d="M13560 7969 c0 -5 5 -7 10 -4 6 3 10 8 10 11 0 2 -4 4 -10 4 -5 0 -10 -5 -10 -11z"/><path d="M13825 7918 c-16 -11 -22 -17 -11 -14 13 5 17 2 12 -9 -7 -19 12 -19 44 1 23 14 23 14 3 9 -25 -7 -30 4 -11 23 19 19 -4 13 -37 -10z"/><path d="M13980 7921 c0 -27 14 -33 36 -15 18 14 18 15 -5 8 -19 -5 -23 -3 -18 10 4 9 2 16 -3 16 -6 0 -10 -9 -10 -19z"/><path d="M13908 7924 c-8 -7 3 -44 13 -44 4 0 11 5 14 10 3 6 1 10 -5 10 -7 0 -10 7 -6 15 5 15 -5 21 -16 9z"/><path d="M14858 9253 c7 -3 16 -2 19 1 4 3 -2 6 -13 5 -11 0 -14 -3 -6 -6z"/><path d="M14765 8900 c3 -5 8 -10 11 -10 2 0 4 5 4 10 0 6 -5 10 -11 10 -5 0 -7 -4 -4 -10z"/><path d="M14394 8775 c-38 -19 -78 -43 -90 -53 -25 -21 -48 -61 -40 -69 10 -11 56 16 56 32 0 8 8 15 18 15 9 0 44 18 77 40 33 22 63 40 66 40 4 0 9 7 13 15 9 25 -26 18 -100 -20z"/><path d="M14402 8719 c-23 -17 -42 -35 -42 -40 0 -13 24 -11 37 2 6 6 22 17 35 23 22 11 38 46 21 46 -5 0 -28 -14 -51 -31z"/><path d="M14182 8644 c-12 -20 -17 -34 -10 -32 15 5 54 68 41 68 -4 -1 -18 -17 -31 -36z"/><path d="M14682 8591 c13 -14 31 -35 39 -45 15 -21 17 -21 -37 0 -13 6 -14 4 -4 -12 12 -20 60 -29 60 -11 0 5 -12 26 -26 45 -20 25 -23 36 -14 42 7 5 2 8 -15 8 l-26 0 23 -27z"/><path d="M14660 8470 c11 -20 30 -28 30 -12 0 11 -22 32 -32 32 -5 0 -4 -9 2 -20z"/><path d="M14705 8451 c-3 -5 -1 -12 5 -16 5 -3 10 1 10 9 0 18 -6 21 -15 7z"/><path d="M14650 8359 c0 -16 4 -28 9 -24 5 3 12 -4 16 -15 10 -33 25 -12 24 33 l-2 42 -6 -35 -6 -35 -12 33 c-15 40 -23 41 -23 1z"/><path d="M14460 8221 c0 -11 4 -22 9 -25 4 -3 6 6 3 19 -5 30 -12 33 -12 6z"/></g></g>
<g transform="translate(247.6,-254.9)"><g transform="translate(0,1024) scale(0.1,-0.1)"><path d="M850 6758 c-19 -5 -41 -15 -48 -20 -9 -8 -11 -7 -6 6 14 38 -41 11 -108 -52 -32 -31 -36 -32 -31 -12 4 16 2 21 -7 18 -22 -7 -71 -84 -90 -140 -16 -44 -19 -48 -19 -23 -1 28 -2 28 -19 12 -13 -14 -17 -35 -17 -105 0 -48 3 -100 8 -117 l8 -30 -19 24 c-16 20 -20 21 -25 7 -14 -37 16 -120 62 -170 l26 -29 -27 7 c-59 14 -35 -47 36 -89 39 -24 40 -25 14 -25 -16 0 -28 -4 -28 -9 0 -15 70 -54 120 -67 l45 -12 -33 -12 c-31 -11 -32 -14 -18 -28 10 -11 35 -16 71 -16 52 -1 70 -9 43 -19 -10 -3 -10 -8 -2 -17 9 -9 28 -9 75 -2 35 5 65 8 67 7 2 -2 -9 -22 -24 -44 -28 -43 -27 -64 3 -40 16 13 4 -12 -46 -90 -15 -23 -14 -23 9 -16 25 8 25 7 6 -13 -10 -12 -27 -24 -37 -27 -28 -9 -23 -25 7 -25 14 0 23 -4 19 -10 -4 -6 -11 -7 -17 -4 -7 5 -9 2 -5 -8 4 -12 -5 -19 -39 -28 -39 -11 -44 -16 -50 -49 -10 -62 -55 -234 -66 -255 -19 -35 -13 -127 11 -167 24 -42 57 -59 109 -59 72 0 123 53 108 113 -8 35 63 131 90 120 7 -2 38 2 68 11 30 9 61 13 69 10 8 -3 28 1 45 10 16 8 38 15 48 14 10 0 24 0 29 2 6 1 20 -1 33 -5 16 -5 21 -12 16 -24 -17 -41 -16 -61 2 -61 11 0 27 -14 36 -30 9 -17 22 -30 28 -30 6 0 2 12 -9 26 -23 29 -28 49 -10 38 6 -3 15 -1 19 7 7 10 11 10 25 -1 13 -11 21 -11 35 -2 16 10 21 8 29 -6 10 -16 12 -16 40 0 17 9 33 13 36 8 6 -9 44 -2 62 12 8 6 15 3 22 -11 18 -32 41 -51 65 -51 50 0 94 -77 62 -108 -16 -16 -17 -15 -11 13 5 29 5 29 -5 5 -13 -29 -28 -40 -57 -40 -17 0 -20 4 -16 23 l6 22 -20 -24 c-18 -22 -24 -23 -82 -16 -57 7 -67 11 -113 56 -28 27 -53 47 -55 45 -3 -2 18 -27 46 -55 40 -40 59 -51 96 -57 65 -9 201 0 219 16 41 33 2 112 -64 130 -48 13 -66 40 -48 70 7 11 19 20 26 20 7 0 20 15 28 33 8 17 20 40 26 49 19 27 6 29 -50 8 -29 -11 -64 -20 -79 -20 -25 0 -26 0 -8 20 27 30 14 33 -54 10 -65 -22 -91 -25 -91 -11 0 5 7 14 15 21 29 24 14 29 -31 9 -52 -24 -68 -19 -33 10 13 11 22 22 18 25 -3 3 -32 -17 -65 -44 -32 -27 -63 -50 -68 -50 -5 0 -17 -6 -26 -12 -9 -7 -3 -1 14 15 42 37 26 34 -35 -8 -52 -36 -69 -42 -69 -26 0 5 -23 1 -50 -10 -28 -10 -63 -18 -78 -17 -43 3 -86 -1 -79 -8 3 -3 -10 -26 -30 -52 -28 -38 -33 -51 -29 -78 5 -25 1 -38 -20 -63 -15 -18 -34 -31 -43 -30 -9 1 -25 -2 -35 -6 -13 -6 -31 -2 -55 12 -38 22 -55 47 -24 36 11 -4 7 3 -9 16 -36 29 -37 78 -4 181 13 41 32 111 40 155 17 80 33 105 68 105 9 0 27 10 38 23 16 16 19 17 15 5 -5 -13 -2 -18 10 -18 14 0 14 -4 -5 -27 l-22 -28 24 -5 c15 -3 23 -12 23 -25 0 -15 7 -20 30 -22 29 -2 29 -2 5 7 -21 7 -22 8 -5 10 11 1 33 4 48 6 l28 5 -23 -35 c-12 -19 -27 -32 -32 -29 -5 4 -6 1 -2 -5 4 -7 20 -12 37 -12 16 0 29 -4 29 -10 0 -5 8 -10 18 -11 14 0 14 -2 -3 -9 -18 -8 -18 -9 -2 -9 10 -1 32 6 48 15 32 16 57 10 26 -7 -9 -6 -17 -14 -17 -19 0 -16 42 -11 85 10 22 11 31 18 21 15 -20 -6 -20 -6 0 16 16 18 20 19 22 5 5 -23 62 -18 62 5 0 6 -7 6 -18 0 -14 -7 -19 -6 -19 4 0 8 4 12 8 9 4 -2 7 4 6 15 -1 15 -5 17 -18 10 -28 -15 -33 -11 -14 11 10 11 27 22 38 26 16 5 17 8 6 15 -11 8 -1 22 44 63 31 29 57 59 57 67 0 12 2 11 10 -1 7 -12 12 -12 29 4 12 11 21 14 21 8 0 -7 7 -12 15 -12 12 0 13 -4 3 -25 -8 -18 -8 -28 1 -38 6 -8 9 -22 5 -31 -10 -27 13 -18 40 17 l26 32 -6 -47 c-8 -57 1 -60 52 -22 l34 26 0 -36 c0 -43 8 -45 50 -9 l32 26 -7 -45 c-6 -41 -5 -47 15 -53 14 -5 28 -1 41 11 17 15 22 16 29 4 7 -11 13 -11 34 3 14 10 33 28 42 42 18 28 40 34 30 9 -3 -9 -9 -27 -12 -40 -9 -35 22 -31 64 9 l34 32 -7 -32 c-8 -41 3 -42 40 -3 33 35 51 39 35 9 -7 -11 -9 -27 -6 -35 8 -21 32 -17 44 9 8 17 11 18 11 5 1 -20 26 -24 37 -6 5 8 10 6 15 -8 11 -29 11 -56 -2 -49 -6 4 -8 13 -5 21 3 8 1 14 -4 14 -13 0 -13 -30 0 -50 8 -12 13 -13 30 -2 25 15 30 15 30 -2 0 -7 9 -25 20 -39 25 -31 25 -32 -2 -33 -13 0 -32 -4 -42 -9 -16 -7 -18 -5 -13 8 3 9 3 17 -2 17 -15 0 -31 -27 -26 -43 6 -13 10 -13 37 0 25 13 32 13 38 2 7 -10 11 -10 24 0 13 11 20 11 41 -3 24 -16 25 -18 10 -39 -8 -12 -15 -32 -15 -44 0 -13 -14 -37 -30 -55 -18 -20 -28 -26 -24 -15 5 14 1 13 -19 -7 -31 -31 -73 -36 -62 -8 5 14 4 15 -6 5 -18 -18 -65 -16 -85 4 -15 16 -15 17 2 23 16 6 16 7 -4 12 -18 5 -22 13 -22 45 0 48 20 88 45 89 11 1 28 2 38 3 9 1 17 6 17 12 0 5 -5 7 -12 3 -7 -4 -8 -3 -4 5 4 6 12 9 17 6 5 -4 9 -1 9 4 0 15 -21 13 -44 -4 -11 -8 -28 -15 -39 -15 -15 0 -18 5 -13 25 7 29 -13 35 -34 10 -10 -11 -10 -15 0 -15 6 0 10 -6 8 -12 -3 -7 -11 -13 -18 -13 -7 0 -15 -6 -18 -13 -2 -7 2 -10 12 -6 9 3 16 1 16 -6 0 -6 5 -8 11 -4 8 4 9 -1 3 -17 -5 -13 -9 -44 -9 -68 1 -36 6 -48 33 -72 27 -24 41 -29 82 -29 91 0 140 33 159 106 14 52 33 70 51 49 14 -16 45 -21 35 -5 -11 18 12 10 31 -11 10 -12 40 -32 67 -45 47 -24 63 -39 30 -27 -14 4 -15 3 -7 -6 6 -7 22 -14 35 -15 14 -2 37 -15 53 -29 77 -72 288 -76 323 -7 7 14 11 36 7 50 -7 32 -51 78 -78 82 -24 4 -106 130 -87 136 14 5 15 32 1 32 -5 0 -10 -8 -10 -17 0 -12 -3 -14 -11 -6 -7 7 -3 18 15 36 14 14 26 31 26 36 0 6 -12 -2 -27 -17 l-27 -27 -13 33 c-7 17 -15 32 -16 32 -8 0 0 -39 10 -52 6 -7 11 -15 10 -18 -1 -3 21 -42 48 -87 39 -66 55 -85 82 -94 18 -6 40 -20 48 -32 20 -29 19 -81 -2 -98 -15 -12 -16 -12 -9 6 7 18 5 18 -14 -2 -21 -24 -88 -34 -74 -12 5 8 1 8 -14 0 -49 -26 -138 -5 -187 45 -20 19 -40 32 -45 29 -6 -3 -10 -1 -10 4 0 6 -20 20 -45 32 -24 11 -65 39 -91 62 -37 33 -45 37 -40 19 14 -44 -20 -18 -50 38 -14 27 -19 31 -22 17 -2 -9 -8 -15 -13 -12 -12 8 -11 36 1 55 8 13 12 12 25 -7 22 -31 62 -30 77 2 13 28 23 32 32 10 16 -42 56 3 56 63 l0 27 20 -25 c11 -14 20 -23 21 -20 13 57 9 73 -28 117 -21 26 -43 56 -50 67 -7 12 -12 15 -13 8 0 -10 -5 -10 -21 -1 -18 9 -24 8 -31 -5 -12 -22 -32 -21 -24 1 4 10 4 14 0 10 -4 -4 -13 -2 -20 4 -19 15 -7 179 17 244 11 28 19 51 19 53 0 8 -30 -1 -63 -18 -35 -19 -37 -19 -37 -2 0 30 50 92 98 123 25 16 49 26 54 21 4 -4 1 -25 -7 -47 -18 -54 -7 -55 86 -11 78 38 102 35 74 -8 -20 -30 -30 -32 -43 -10 -8 14 -11 14 -26 -7 -29 -42 -18 -63 20 -34 27 20 32 19 36 -12 4 -28 4 -28 15 7 5 19 15 34 20 33 6 -1 19 7 28 17 24 27 45 26 38 -1 -4 -16 -2 -20 8 -17 8 2 15 15 17 27 2 12 22 35 45 51 23 16 51 36 62 45 19 15 18 16 -17 11 -39 -5 -107 -34 -148 -63 -24 -17 -24 -17 -11 0 20 25 85 58 155 77 71 20 86 40 29 40 -21 -1 -57 -5 -81 -9 -31 -6 -40 -5 -33 2 6 6 49 13 96 15 47 2 85 9 85 14 0 12 72 54 88 50 10 -2 10 3 -1 25 -15 29 -28 185 -15 177 14 -9 9 10 -12 44 -23 38 -13 42 20 7 17 -18 27 -22 40 -15 10 5 20 7 23 3 3 -3 13 1 21 9 12 13 10 17 -16 32 -16 10 -27 24 -24 31 2 7 -2 16 -10 19 -9 3 -12 1 -9 -4 3 -6 4 -10 2 -10 -8 0 -67 32 -67 36 0 12 40 82 54 93 14 12 16 7 16 -45 0 -42 3 -55 10 -44 16 24 12 106 -5 120 -13 11 -30 3 -102 -45 -50 -33 -89 -53 -91 -46 -3 8 -9 8 -24 0 -11 -6 -39 -11 -62 -12 -35 -1 -53 7 -101 42 -95 67 -128 49 -142 -79 -5 -51 -10 -63 -28 -70 -12 -5 -25 -15 -28 -24 -4 -9 -24 -18 -47 -22 -38 -6 -57 -24 -25 -24 27 0 16 -17 -24 -35 -22 -10 -52 -15 -66 -13 -34 7 -41 -7 -13 -27 22 -17 21 -17 -35 -12 -34 3 -55 2 -52 -4 9 -13 1 -12 -90 20 -46 17 -85 26 -87 20 -2 -5 -30 1 -63 15 -80 32 -130 43 -120 25 6 -9 3 -10 -11 -5 -10 5 -62 11 -114 14 -81 4 -93 3 -83 -9 9 -12 2 -14 -40 -17 -76 -4 -155 -21 -171 -38 -8 -8 -48 -19 -88 -24 -86 -10 -129 4 -159 54 -16 26 -19 27 -25 12 -10 -25 -24 -1 -24 42 0 17 -5 32 -10 32 -6 0 -3 14 6 31 12 25 13 33 4 39 -10 6 -7 16 10 40 25 35 20 51 -10 32 -24 -15 -24 -14 -5 31 21 51 20 116 -2 123 -10 3 -30 12 -46 20 -15 8 -32 12 -38 9 -6 -4 -9 0 -7 11 4 22 -15 26 -62 12z m30 -22 c-10 -13 -4 -15 37 -18 32 -2 47 -7 45 -15 -1 -7 2 -13 8 -13 6 0 10 -7 10 -16 0 -14 2 -15 17 -3 15 13 16 10 9 -30 -3 -24 -13 -55 -20 -69 l-13 -25 -7 28 c-5 21 -10 25 -19 16 -17 -17 -25 -13 -20 13 6 27 -19 41 -47 26 -26 -14 -33 -13 -26 5 5 15 -5 19 -34 15 -8 -1 -30 -16 -49 -33 l-33 -32 7 33 c9 43 -6 41 -48 -8 -38 -45 -44 -48 -49 -22 -3 13 -7 11 -21 -13 -9 -16 -16 -25 -17 -20 0 13 35 70 72 118 29 37 66 52 54 22 -7 -21 4 -19 28 4 30 28 77 51 105 51 19 0 21 -3 11 -14z m-274 -131 c-9 -9 -16 -21 -16 -27 0 -6 -3 -8 -6 -5 -4 4 1 18 10 33 10 14 20 23 23 20 3 -3 -2 -12 -11 -21z m1912 -47 c41 -33 92 -90 92 -103 0 -3 -9 -3 -20 0 -25 8 -26 -3 -3 -21 23 -16 11 -29 -15 -15 -15 8 -22 8 -26 -2 -5 -9 -7 -9 -12 1 -5 10 -10 9 -26 -4 -15 -15 -21 -16 -27 -5 -12 19 -18 2 -16 -41 2 -48 -10 -40 -24 16 -21 86 -8 206 24 206 7 0 30 -15 53 -32z m-1841 -80 c-3 -8 -6 -5 -6 6 -1 11 2 17 5 13 3 -3 4 -12 1 -19z m-57 -54 c0 -8 7 -17 15 -20 9 -4 15 -19 15 -38 0 -24 -3 -27 -10 -16 -5 8 -10 11 -10 6 0 -6 -7 -1 -15 10 -16 21 -21 89 -5 79 6 -3 10 -13 10 -21z m114 5 c-6 -11 -24 -2 -24 11 0 5 7 7 15 4 8 -4 12 -10 9 -15z m-149 -97 c-3 -7 0 -10 5 -7 12 8 13 -5 1 -23 -6 -10 -14 -2 -30 30 -28 60 -27 80 4 43 13 -16 22 -36 20 -43z m2260 19 c0 -8 -6 -16 -14 -19 -9 -3 -11 0 -6 8 4 7 2 16 -6 22 -11 7 -9 8 6 6 11 -2 20 -10 20 -17z m-1120 -59 c-3 -3 -11 0 -18 7 -9 10 -8 11 6 5 10 -3 15 -9 12 -12z m1076 -62 c-12 -7 -13 -13 -3 -35 17 -37 46 -29 52 15 5 31 7 33 13 13 12 -34 -8 -63 -43 -63 -56 0 -89 59 -54 95 16 15 18 15 33 0 14 -13 14 -17 2 -25z m-584 -18 c-23 -5 -47 4 -47 17 0 6 13 5 33 -2 23 -8 27 -12 14 -15z m-5 -32 l-23 -19 35 -7 c20 -3 43 -4 51 0 18 6 16 -27 -3 -46 -20 -20 -13 -30 18 -26 23 4 30 1 30 -13 0 -9 -7 -22 -15 -29 -8 -7 -15 -20 -15 -30 0 -18 -23 -44 -32 -35 -2 3 -26 1 -51 -4 -26 -4 -49 -6 -52 -3 -3 3 13 25 36 48 l42 42 -47 7 c-54 8 -58 18 -16 40 17 9 30 20 30 24 0 5 -13 12 -30 16 -40 9 -38 20 8 38 50 21 62 20 34 -3z m228 10 c0 -5 -8 -10 -17 -10 -15 0 -16 2 -3 10 19 12 20 12 20 0z m-90 -24 c0 -2 -8 -10 -17 -17 -16 -13 -17 -12 -4 4 13 16 21 21 21 13z m94 -55 c-5 -4 -21 -12 -36 -19 -29 -12 -39 1 -13 15 19 11 61 14 49 4z m-1264 -31 c-14 -4 -34 -8 -45 -8 -16 0 -15 2 5 8 14 4 34 8 45 8 16 0 15 -2 -5 -8z m1420 -10 c-8 -5 -22 -10 -30 -10 -13 0 -13 1 0 10 8 5 22 10 30 10 13 0 13 -1 0 -10z m-1632 -26 c-9 -9 -24 -14 -32 -11 -27 11 -17 27 16 27 30 0 31 -1 16 -16z m142 -3 c0 -3 -9 -12 -20 -19 -14 -9 -20 -9 -20 -1 0 8 -5 8 -15 -1 -8 -7 -15 -9 -15 -5 0 13 44 43 57 38 7 -3 13 -8 13 -12z m1215 -41 c-3 -5 -12 -10 -18 -10 -7 0 -6 4 3 10 19 12 23 12 15 0z m-1275 -109 c0 -9 -44 -41 -56 -41 -4 0 3 11 16 25 24 26 40 32 40 16z m60 -25 c0 -8 -92 -58 -97 -53 -6 7 68 57 84 57 7 0 13 -2 13 -4z m95 -6 c-3 -5 -12 -10 -18 -10 -7 0 -6 4 3 10 19 12 23 12 15 0z m-235 -4 c0 -2 -8 -10 -17 -17 -16 -13 -17 -12 -4 4 13 16 21 21 21 13z m-19 -84 c-11 -21 -27 -44 -36 -52 -9 -7 -2 10 16 38 38 61 47 68 20 14z m29 -7 c-7 -8 -8 -15 -2 -15 5 0 15 7 22 15 14 17 30 20 30 4 0 -5 -15 -16 -34 -24 -19 -8 -43 -27 -54 -42 -21 -28 -21 -28 -15 -3 7 28 53 93 61 86 3 -3 -1 -12 -8 -21z m1271 -68 c-8 -8 -11 -3 -11 17 0 19 -4 25 -12 20 -7 -4 -4 3 7 15 l20 23 3 -32 c2 -18 -1 -37 -7 -43z m-1213 -9 c-2 -6 -10 -14 -16 -16 -7 -2 -10 2 -6 12 7 18 28 22 22 4z m306 -60 c-13 -24 -37 -48 -47 -48 -6 0 2 14 18 30 31 32 41 38 29 18z m-214 -23 c-7 -8 -17 -15 -23 -15 -6 0 -2 7 9 15 25 19 30 19 14 0z m-20 -49 c0 -2 -7 -7 -16 -10 -8 -3 -12 -2 -9 4 6 10 25 14 25 6z m676 -124 c-8 -9 -19 -13 -22 -9 -10 9 16 38 28 31 6 -4 4 -13 -6 -22z"/><path d="M2255 6120 c-3 -6 1 -7 9 -4 18 7 21 14 7 14 -6 0 -13 -4 -16 -10z"/><path d="M3005 6440 c-3 -6 1 -7 9 -4 18 7 21 14 7 14 -6 0 -13 -4 -16 -10z"/><path d="M2976 6394 c-3 -8 -2 -12 4 -9 23 14 28 -7 15 -53 -16 -51 -19 -111 -7 -127 4 -6 20 -19 35 -29 38 -24 62 -81 48 -113 -14 -31 -31 -29 -32 5 0 15 -3 20 -6 12 -3 -8 -13 -23 -21 -33 -14 -16 -14 -17 0 -12 23 9 27 -5 12 -42 -17 -41 -51 -63 -112 -74 -25 -5 -53 -16 -61 -24 -12 -12 -12 -13 5 -9 24 5 56 -15 36 -23 -10 -4 -8 -11 9 -29 23 -25 39 -31 39 -15 0 5 -10 11 -21 14 -15 4 -20 11 -15 23 3 9 2 22 -4 29 -8 10 -3 15 22 20 55 12 87 33 108 73 12 20 29 51 39 67 21 34 36 99 21 90 -14 -8 -13 8 1 22 8 8 6 15 -10 25 -11 7 -21 21 -21 31 0 9 -5 26 -12 37 -9 15 -9 24 1 44 12 22 11 29 -15 70 -30 48 -48 57 -58 30z m41 -167 c-4 -31 -4 -31 -5 6 -1 23 -6 36 -12 32 -11 -7 -14 8 -3 19 12 12 24 -23 20 -57z"/><path d="M3015 6120 c18 -20 35 -26 35 -12 0 4 -12 12 -26 19 -26 12 -26 12 -9 -7z"/><path d="M2675 5966 c-30 -24 -28 -49 2 -30 13 8 39 54 30 54 -1 0 -15 -11 -32 -24z"/><path d="M2890 5780 c6 -11 15 -20 20 -20 4 0 15 -3 24 -6 19 -7 23 21 4 32 -7 4 -8 3 -4 -4 11 -17 -9 -15 -24 3 -18 22 -32 18 -20 -5z"/><path d="M2871 5715 c1 -11 5 -33 9 -50 l8 -30 1 34 1 33 20 -23 19 -24 -1 35 c0 22 -2 27 -5 13 -4 -22 -5 -22 -28 5 -22 24 -24 25 -24 7z"/><path d="M2850 5615 c0 -22 18 -55 30 -55 6 0 10 15 9 33 -1 30 -1 31 -9 7 -7 -23 -8 -23 -9 -3 -1 25 -21 42 -21 18z"/><path d="M2270 5595 c0 -9 9 -15 23 -14 12 0 16 3 9 6 -6 2 -10 9 -6 14 3 5 -2 9 -10 9 -9 0 -16 -7 -16 -15z"/><path d="M2841 5544 c0 -11 3 -14 6 -6 3 7 2 16 -1 19 -3 4 -6 -2 -5 -13z"/><path d="M2797 5516 c-4 -10 -5 -21 -2 -24 9 -9 17 6 13 25 -3 17 -4 17 -11 -1z"/><path d="M2821 5496 c-8 -14 -12 -29 -8 -32 7 -7 29 34 25 47 -2 6 -10 -1 -17 -15z"/><path d="M2737 5448 c-5 -17 3 -48 14 -48 8 0 29 32 29 46 0 3 -7 1 -15 -6 -13 -11 -14 -10 -9 4 3 9 2 16 -4 16 -6 0 -12 -6 -15 -12z"/><path d="M1805 5340 c-11 -5 -33 -9 -48 -9 -16 -1 -26 -5 -23 -9 3 -5 20 -7 38 -5 l33 4 -24 -20 c-18 -16 -20 -22 -9 -26 8 -3 25 -1 39 4 l24 10 -23 0 -23 1 21 30 c12 17 20 30 18 29 -2 0 -12 -4 -23 -9z"/><path d="M1876 5319 c-15 -9 -16 -13 -5 -20 11 -6 11 -11 1 -21 -6 -6 -12 -16 -12 -20 0 -12 32 -10 50 3 12 9 11 10 -7 6 -26 -6 -30 5 -8 23 16 13 21 40 8 40 -5 0 -16 -5 -27 -11z"/></g></g>
<g transform="translate(228.6,-254.6)"><g transform="translate(0,1024) scale(0.1,-0.1)"><path d="M3950 6655 c-27 -9 -46 -11 -48 -5 -4 11 -53 -12 -99 -47 -22 -16 -31 -19 -27 -8 10 24 -10 18 -37 -12 -40 -45 -51 -61 -65 -100 -9 -28 -13 -32 -14 -15 0 36 -17 25 -35 -22 -13 -33 -16 -66 -13 -121 3 -62 1 -73 -9 -59 -12 16 -13 16 -19 0 -11 -28 4 -86 31 -128 22 -33 23 -38 7 -29 -11 6 -22 8 -25 4 -9 -8 17 -54 43 -78 l22 -20 -22 -5 -22 -5 21 -27 c12 -14 44 -38 72 -52 49 -24 50 -25 25 -32 -50 -12 -22 -38 55 -50 24 -4 38 -9 31 -12 -6 -2 -12 -8 -12 -14 0 -7 17 -9 44 -6 35 4 43 2 39 -8 -6 -17 11 -18 39 -3 15 8 22 8 28 -1 4 -7 17 1 35 24 26 33 56 51 39 25 -5 -8 -1 -8 14 0 37 20 46 12 19 -17 -34 -35 -35 -48 -2 -26 14 9 28 14 31 11 12 -12 -53 -33 -99 -32 -42 1 -51 -3 -68 -26 -24 -35 -24 -42 2 -34 19 6 18 3 -10 -38 -17 -25 -31 -50 -31 -55 0 -10 30 -9 48 1 8 6 10 3 6 -8 -4 -8 -11 -14 -18 -13 -15 4 -76 -22 -76 -33 0 -4 5 -11 12 -15 7 -4 8 -3 4 4 -4 7 -3 12 3 12 19 0 21 -17 3 -33 -9 -8 -32 -18 -49 -22 -18 -3 -34 -10 -34 -13 -1 -4 -3 -16 -5 -27 -6 -42 -54 -207 -69 -234 -38 -74 -25 -170 31 -222 20 -18 35 -24 69 -22 24 1 53 6 64 13 27 14 54 67 48 92 -8 30 51 108 82 109 14 0 44 6 66 13 l40 12 -67 0 c-38 0 -68 -4 -68 -9 0 -5 -16 -28 -35 -51 -24 -29 -35 -53 -35 -75 0 -40 -14 -67 -42 -82 -18 -10 -20 -9 -14 7 6 17 6 17 -12 1 -26 -24 -56 -21 -89 9 -22 21 -24 25 -8 20 15 -5 13 -1 -7 15 -24 17 -28 28 -28 69 0 26 11 77 25 113 13 36 34 102 45 148 12 46 28 90 37 97 9 6 40 12 67 12 l51 0 -34 -22 -34 -22 23 -18 c12 -10 37 -18 56 -18 38 0 45 -15 12 -26 -21 -6 -21 -7 -3 -20 10 -8 29 -14 42 -14 13 0 23 -4 23 -10 0 -5 -4 -10 -10 -10 -5 0 -10 -4 -10 -8 0 -4 32 -7 70 -7 69 1 90 -7 50 -20 -21 -7 -28 -25 -10 -25 6 0 10 5 10 10 0 6 12 10 28 10 15 0 34 5 42 11 12 8 9 9 -10 5 -14 -3 -6 3 17 13 41 19 80 71 65 86 -4 3 0 5 8 3 8 -2 14 3 12 10 -1 8 2 11 8 7 5 -3 10 -1 10 5 0 6 5 8 10 5 6 -3 10 -1 10 6 0 7 16 27 35 44 26 25 35 29 40 17 3 -8 -12 -30 -37 -55 -24 -22 -35 -35 -25 -27 22 16 34 6 17 -15 -7 -9 -9 -15 -4 -14 22 4 35 -2 28 -13 -4 -7 2 -5 14 6 11 10 30 37 41 60 l21 41 0 -32 c0 -40 6 -41 43 -5 l30 27 -6 -25 c-3 -14 -2 -32 4 -40 8 -12 13 -10 32 15 l22 29 5 -29 c7 -39 36 -45 51 -11 17 36 29 32 29 -10 l0 -35 30 21 c33 24 38 17 14 -19 -23 -33 -5 -47 35 -27 24 13 32 25 37 56 7 43 24 45 24 3 0 -25 0 -26 20 -8 23 21 26 9 5 -21 -8 -12 -11 -24 -8 -28 13 -12 32 -5 63 24 35 32 52 32 32 0 -34 -54 4 -67 54 -19 l33 32 6 -26 c8 -29 33 -43 49 -27 8 8 6 9 -7 4 -17 -6 -17 -5 0 29 11 21 19 29 21 21 3 -12 7 -13 18 -3 13 10 14 7 13 -22 -4 -49 8 -65 31 -44 18 16 20 15 37 -21 13 -27 25 -38 38 -37 17 1 44 -22 45 -39 0 -5 -9 -8 -20 -8 -11 0 -20 5 -20 10 0 15 -32 12 -74 -5 l-37 -15 7 25 c8 34 -18 33 -64 -2 -20 -15 -32 -22 -29 -16 11 17 -3 42 -19 36 -9 -3 -14 2 -14 15 0 16 -17 32 -36 32 -10 0 -3 -29 9 -33 9 -3 9 -7 -2 -20 -7 -10 -18 -17 -23 -17 -6 0 -5 7 2 16 12 13 10 14 -13 3 -15 -7 -27 -16 -27 -21 0 -4 -5 -8 -11 -8 -7 0 -9 11 -5 30 6 32 1 36 -24 20 -12 -8 -12 -10 -1 -10 11 0 11 -3 1 -15 -7 -8 -20 -15 -29 -15 -9 0 -4 -6 12 -15 24 -12 37 -13 75 -3 26 6 50 15 53 21 4 5 9 4 14 -3 4 -7 -1 -13 -14 -17 -12 -3 -21 -10 -21 -15 0 -6 7 -7 16 -4 13 5 15 2 9 -16 -25 -79 -12 -139 36 -163 64 -33 139 -2 185 77 17 29 36 52 43 50 7 -1 17 11 23 28 8 24 15 29 29 25 12 -4 19 -2 19 6 0 8 9 4 23 -8 31 -29 85 -55 89 -43 5 14 115 -42 121 -62 3 -12 15 -18 32 -18 16 0 43 -14 66 -34 61 -51 179 -72 258 -45 78 27 63 128 -25 165 -21 9 -48 36 -74 74 -34 50 -39 62 -29 78 16 25 4 59 -15 43 -7 -6 -16 -8 -19 -4 -9 9 12 33 29 33 7 0 18 9 24 19 15 29 12 38 -5 15 -14 -19 -14 -19 -15 1 -1 15 -6 10 -21 -17 -22 -43 -33 -47 -51 -18 -7 11 -19 20 -26 20 -8 0 0 -12 17 -26 17 -14 28 -30 25 -36 -3 -5 5 -22 18 -36 14 -15 42 -53 62 -84 28 -43 49 -63 80 -77 53 -23 76 -67 56 -109 -8 -17 -14 -22 -17 -14 -4 10 -8 10 -17 -2 -6 -9 -26 -19 -45 -22 -31 -6 -34 -5 -27 12 6 15 5 17 -5 7 -33 -33 -132 -5 -204 58 -19 17 -35 26 -35 20 0 -6 -5 -11 -11 -11 -6 0 -9 6 -6 14 4 10 -8 19 -38 30 -24 8 -65 29 -90 46 -42 29 -61 30 -33 2 9 -9 9 -12 0 -12 -7 0 -35 20 -61 45 -32 30 -51 41 -53 33 -6 -17 -34 5 -41 32 -5 20 8 29 15 10 2 -6 16 -13 32 -16 25 -4 28 -2 23 16 -6 24 18 28 27 4 3 -8 14 -14 23 -12 14 3 17 12 15 38 l-3 35 21 -24 c15 -18 24 -21 32 -13 11 11 13 101 2 135 -3 9 -1 17 4 17 11 0 6 55 -8 78 -8 14 -9 12 -10 -12 0 -22 -3 -27 -11 -19 -6 6 -17 9 -25 6 -8 -3 -16 5 -20 22 -3 14 -11 24 -18 22 -6 -2 -17 3 -25 10 -7 8 -20 12 -28 9 -8 -3 -21 1 -30 9 -8 8 -19 12 -25 9 -7 -4 -7 0 0 13 7 12 7 25 1 34 -11 17 -12 32 -1 26 4 -3 7 18 7 46 0 30 8 67 18 86 9 19 15 36 12 39 -2 3 -27 -5 -55 -16 -62 -26 -64 -15 -15 57 19 28 35 53 35 57 0 4 -27 4 -60 2 -33 -2 -60 -2 -60 1 0 3 19 25 42 48 l42 43 -46 0 c-26 0 -49 4 -53 9 -3 5 13 21 36 35 l42 24 -41 12 c-23 6 -42 14 -42 19 0 10 72 32 79 24 4 -3 0 -8 -7 -10 -24 -9 0 -23 39 -23 21 0 39 -3 39 -7 0 -4 -12 -20 -27 -35 l-27 -28 48 0 47 0 -27 -45 c-14 -25 -24 -48 -21 -51 3 -3 24 0 47 6 23 6 44 9 46 7 3 -3 -3 -21 -12 -41 -10 -19 -15 -39 -11 -42 9 -9 94 42 106 64 5 9 13 14 17 10 4 -4 1 -14 -6 -23 -15 -18 -7 -19 21 -4 11 5 17 15 13 20 -4 7 1 7 15 0 25 -14 26 -24 5 -56 -9 -14 -13 -32 -10 -41 5 -14 14 -9 45 25 42 45 62 53 54 20 -5 -17 -2 -20 13 -17 13 2 18 10 16 25 -3 21 48 73 71 73 7 0 18 9 25 20 7 11 10 20 7 20 -17 0 -142 -53 -168 -72 -23 -16 -28 -17 -18 -5 22 28 90 64 153 82 32 9 61 21 64 27 12 20 -154 0 -218 -26 -32 -13 -58 -21 -58 -17 0 18 133 56 234 66 56 6 77 13 107 37 21 17 42 27 48 23 15 -9 14 1 -4 36 -12 22 -14 45 -9 92 3 34 8 66 11 70 3 4 -7 23 -22 42 -34 45 -20 44 34 -1 23 -20 43 -35 45 -33 36 54 37 58 12 74 -15 10 -22 22 -19 31 3 8 0 14 -6 14 -6 0 -11 -4 -11 -10 0 -5 -16 0 -35 11 l-35 21 15 36 c33 78 55 82 56 10 0 -45 2 -49 10 -28 13 31 2 100 -17 107 -8 3 -52 -20 -99 -51 -85 -57 -102 -65 -89 -45 4 8 -1 9 -17 4 -51 -17 -96 -9 -135 22 -109 85 -144 69 -160 -72 -6 -47 -11 -58 -31 -66 -13 -5 -22 -14 -21 -21 2 -7 -15 -17 -39 -23 -52 -13 -64 -24 -34 -32 22 -6 22 -6 -6 -24 -18 -12 -46 -19 -77 -19 -49 0 -49 0 -31 -20 19 -21 19 -21 -41 -16 -101 10 -128 14 -171 30 -24 8 -43 12 -43 7 0 -4 -34 1 -76 12 -42 10 -79 15 -83 10 -3 -4 -47 -8 -97 -8 -51 0 -98 -5 -105 -11 -8 -6 -32 -14 -54 -18 -62 -11 -134 -36 -142 -51 -5 -7 -34 -14 -71 -17 -57 -4 -66 -2 -90 21 -15 14 -33 24 -39 23 -12 -3 -20 55 -13 83 2 6 4 19 5 30 1 11 7 30 13 42 16 29 15 44 -1 37 -11 -4 -11 6 1 56 14 56 14 63 -1 78 -11 11 -17 12 -17 4 0 -8 -9 -10 -26 -6 -19 5 -25 4 -20 -5 4 -6 14 -11 22 -11 8 0 14 -5 14 -11 0 -5 5 -7 10 -4 13 8 13 -34 -1 -73 -10 -28 -13 -30 -26 -17 -8 8 -18 13 -23 10 -5 -3 -10 5 -12 17 -4 30 -51 37 -81 11 -20 -18 -20 -17 -13 2 16 41 18 55 7 55 -24 0 -70 -30 -95 -62 l-26 -33 11 33 c6 18 9 36 6 39 -15 14 -58 -11 -86 -49 -17 -23 -31 -35 -31 -27 1 31 39 96 74 127 37 33 61 37 36 7 -19 -23 -1 -18 31 10 29 24 86 45 123 45 16 0 15 -2 -5 -20 l-24 -19 36 6 c21 3 46 0 60 -8 22 -11 23 -11 10 4 -7 10 -22 17 -33 17 -16 0 -18 3 -9 14 9 11 8 15 -5 20 -20 8 -20 8 -74 -9z m1526 -103 c44 -32 97 -96 87 -106 -4 -3 -15 -6 -25 -6 -11 0 -16 -5 -13 -10 4 -6 11 -8 16 -5 5 4 9 4 9 0 0 -15 -45 -21 -58 -9 -11 12 -16 12 -29 -1 -8 -8 -19 -12 -25 -9 -6 4 -8 2 -5 -4 10 -15 -3 -42 -18 -42 -28 0 -32 150 -5 200 14 26 20 25 66 -8z m-1784 -84 c-8 -8 -9 -4 -5 13 4 13 8 18 11 10 2 -7 -1 -18 -6 -23z m150 -95 c6 -11 8 -27 5 -35 -3 -7 -6 -2 -6 11 -1 16 -5 21 -16 17 -11 -4 -15 1 -15 18 0 26 13 44 18 24 2 -7 8 -23 14 -35z m-89 5 c2 -13 8 -32 12 -43 6 -19 6 -19 -8 -2 -11 14 -16 15 -20 5 -3 -7 -6 4 -6 25 -1 40 14 51 22 15z m2034 -33 c9 -25 -4 -29 -17 -6 -7 15 -7 21 0 21 6 0 13 -7 17 -15z m-2087 -24 c6 -16 10 -40 8 -53 -3 -22 -4 -22 -20 7 -8 17 -19 40 -22 53 -11 34 19 28 34 -7z m1734 17 c-3 -4 -9 -8 -15 -8 -5 0 -9 4 -9 8 0 5 7 9 15 9 8 0 12 -4 9 -9z m322 -98 c8 0 14 -4 14 -10 0 -5 -7 -7 -15 -4 -19 8 -20 -25 -1 -51 19 -26 44 -12 49 27 l4 33 1 -37 c2 -32 -2 -39 -22 -44 -24 -6 -65 10 -78 30 -14 20 -8 55 10 65 10 6 18 6 20 0 2 -5 10 -9 18 -9z m-567 -39 c21 -13 -5 -24 -29 -11 -11 6 -20 13 -20 15 0 8 34 5 49 -4z m141 -11 c0 -5 -5 -10 -11 -10 -5 0 -7 5 -4 10 3 6 8 10 11 10 2 0 4 -4 4 -10z m50 -5 c0 -8 -7 -15 -15 -15 -9 0 -12 6 -9 15 4 8 10 15 15 15 5 0 9 -7 9 -15z m-1130 -49 c-14 -8 -29 -12 -33 -9 -12 8 14 23 38 22 18 0 17 -1 -5 -13z m1118 -53 c-9 -9 -29 -17 -43 -19 -26 -3 -26 -2 -9 17 9 10 29 19 43 19 24 0 24 -1 9 -17z m-1178 -42 c0 -12 -20 -25 -27 -18 -7 7 6 27 18 27 5 0 9 -4 9 -9z m-39 -54 c-5 -5 -25 -11 -43 -12 l-32 -2 34 28 c30 25 35 27 43 13 6 -10 5 -20 -2 -27z m-81 -235 c0 -5 -12 -14 -27 -21 l-28 -12 25 21 c29 22 30 23 30 12z m-80 -6 c0 -2 -8 -10 -17 -17 -16 -13 -17 -12 -4 4 13 16 21 21 21 13z m26 -111 c-9 -14 -21 -25 -26 -25 -5 0 1 15 13 34 12 18 24 29 25 24 2 -5 -3 -20 -12 -33z m262 -61 c-7 -15 -14 -21 -16 -15 -2 6 -9 8 -14 5 -7 -4 -8 -2 -4 5 4 6 11 9 16 6 4 -3 10 2 14 10 3 8 8 15 10 15 3 0 0 -12 -6 -26z m35 0 c-9 -15 -19 -21 -21 -15 -4 13 16 41 29 41 5 0 2 -12 -8 -26z m-343 -6 c-12 -5 -25 -6 -28 -4 -2 3 -13 -4 -25 -15 -11 -10 -25 -19 -30 -19 -18 0 42 49 65 52 33 6 45 -4 18 -14z m366 -3 c-9 -9 -16 -13 -16 -8 0 12 22 34 28 28 2 -2 -3 -11 -12 -20z m-19 -61 c-15 -13 -33 -24 -40 -24 -7 1 3 14 22 30 19 16 37 27 40 24 3 -3 -7 -17 -22 -30z m800 -126 c-3 -8 -6 -5 -6 6 -1 11 2 17 5 13 3 -3 4 -12 1 -19z m614 -35 c13 -16 12 -17 -3 -4 -10 7 -18 15 -18 17 0 8 8 3 21 -13z m-660 -105 c1 -7 1 -16 0 -20 -2 -12 13 -10 53 7 33 14 37 14 42 0 6 -14 8 -14 25 1 11 10 19 12 19 6 0 -8 7 -9 25 -2 33 13 32 7 -14 -48 -21 -26 -46 -62 -55 -79 -9 -18 -29 -39 -44 -46 -49 -25 -142 -16 -142 13 0 6 9 10 19 10 11 0 22 3 24 8 3 4 -9 7 -26 7 -26 0 -33 4 -35 24 -5 34 27 101 48 101 10 0 23 7 30 15 15 18 30 19 31 3z"/><path d="M5927 6449 c7 -7 15 -10 18 -7 3 3 -2 9 -12 12 -14 6 -15 5 -6 -5z"/><path d="M5942 6418 c-14 -14 -16 -38 -3 -38 17 0 21 -32 6 -53 -9 -13 -15 -44 -15 -79 0 -57 14 -82 32 -57 8 11 9 10 4 -4 -4 -12 2 -21 19 -29 14 -6 25 -14 25 -18 0 -12 -29 -45 -30 -34 0 7 -8 15 -17 18 -16 6 -16 6 0 -12 24 -26 21 -49 -10 -79 l-28 -27 27 17 c36 23 43 7 18 -42 -22 -45 -38 -56 -92 -66 -21 -4 -43 -14 -50 -23 -11 -14 -10 -15 6 -9 23 9 54 -12 35 -24 -9 -5 -3 -17 19 -39 39 -38 41 -53 7 -40 -29 11 -29 11 -10 -26 20 -39 20 -66 0 -40 -8 11 -15 15 -15 9 0 -12 27 -43 37 -43 3 0 3 18 -1 40 -6 36 -4 40 14 40 26 0 25 5 -10 50 -21 27 -26 40 -18 44 10 3 8 8 -4 16 -27 17 -22 26 28 45 36 14 49 25 61 54 8 20 24 46 36 58 24 27 41 114 20 106 -7 -3 -13 0 -13 6 0 6 7 11 15 11 16 0 20 16 6 24 -5 3 -18 23 -29 44 -17 32 -18 42 -7 62 11 20 9 29 -18 71 -16 27 -34 49 -40 49 -5 0 -4 7 3 15 15 18 9 20 -8 3z m23 -158 c-3 -5 -11 -10 -16 -10 -6 0 -7 5 -4 10 3 6 11 10 16 10 6 0 7 -4 4 -10z m15 -32 c0 -18 -2 -20 -9 -8 -6 8 -7 18 -5 22 9 14 14 9 14 -14z m40 -169 c-7 -16 -16 -29 -21 -29 -13 0 -11 47 2 72 11 20 12 20 21 4 7 -12 6 -27 -2 -47z"/><path d="M5623 5961 c-24 -20 -30 -41 -13 -41 11 0 50 40 50 52 0 13 -13 9 -37 -11z"/><path d="M5274 5726 c-16 -14 -24 -26 -19 -26 6 -1 17 -3 27 -5 11 -2 18 6 21 24 7 35 4 36 -29 7z"/><path d="M5891 5625 l-2 -40 -15 28 c-17 31 -35 36 -27 7 3 -11 9 -20 13 -20 5 0 12 -9 15 -21 11 -35 27 -6 22 42 l-4 44 -2 -40z"/><path d="M5352 5620 c0 -19 2 -27 5 -17 2 9 2 25 0 35 -3 9 -5 1 -5 -18z"/><path d="M5841 5534 c0 -11 3 -14 6 -6 3 7 2 16 -1 19 -3 4 -6 -2 -5 -13z"/><path d="M5798 5488 c-3 -17 0 -29 8 -32 16 -6 31 14 17 23 -6 3 -12 13 -15 21 -3 9 -7 5 -10 -12z"/><path d="M4375 5350 c-43 -44 -60 -51 -50 -19 5 14 -8 5 -38 -25 -24 -25 -50 -46 -58 -46 -10 1 -9 4 4 14 34 26 16 26 -27 1 -32 -19 -45 -22 -48 -13 -4 10 -8 10 -22 -1 -28 -23 -3 -35 35 -16 22 12 34 14 37 6 4 -12 53 9 85 37 15 14 17 13 17 -1 0 -10 7 -17 15 -17 11 0 14 -9 13 -29 -2 -17 1 -30 6 -30 5 0 15 -13 22 -30 9 -21 18 -29 28 -25 10 4 16 1 16 -7 0 -8 29 -40 65 -71 73 -64 107 -74 226 -66 70 5 109 25 109 55 0 34 -33 76 -76 94 -57 26 -72 51 -44 79 16 16 24 18 38 9 14 -9 24 -9 38 -1 18 11 18 11 0 12 -15 0 -16 3 -7 14 9 11 9 16 0 21 -8 6 -8 10 2 16 10 6 8 10 -10 17 -16 5 -40 2 -78 -10 -31 -11 -67 -18 -80 -16 l-25 3 22 28 c12 15 20 27 18 27 -2 0 -27 -9 -56 -20 -29 -11 -64 -20 -79 -20 -25 0 -25 1 -10 18 24 26 21 36 -5 18 -12 -9 -33 -16 -45 -16 -23 0 -23 1 -7 25 23 36 14 31 -31 -15z m368 -75 c-3 -8 -9 -15 -14 -15 -10 0 -12 24 -3 33 11 11 24 -3 17 -18z m-177 -71 c-5 -12 -2 -15 11 -9 50 20 78 25 82 13 7 -22 50 -58 69 -58 21 0 57 -35 66 -65 6 -22 -9 -54 -20 -43 -4 4 -16 1 -28 -7 -34 -25 -56 -19 -52 13 2 15 1 19 -1 9 -8 -31 -44 -40 -104 -28 -45 10 -65 22 -116 71 -38 35 -63 67 -63 79 0 22 14 28 25 10 5 -7 13 -4 26 7 17 15 19 15 25 0 8 -22 27 -20 49 4 22 24 40 26 31 4z"/></g></g>
<g transform="translate(212.1,-255.7)"><g transform="translate(0,1024) scale(0.1,-0.1)"><path d="M6875 6786 c-16 -7 -45 -26 -64 -42 -33 -27 -34 -28 -29 -6 17 64 -82 -35 -111 -112 -14 -34 -20 -43 -20 -28 -1 35 -22 22 -39 -24 -17 -46 -19 -157 -3 -196 14 -36 -2 -36 -18 -1 -10 21 -14 24 -21 13 -17 -28 11 -127 48 -172 20 -23 22 -30 10 -25 -10 4 -25 10 -33 13 -40 16 5 -71 55 -108 l32 -23 -32 -5 -32 -5 22 -28 c25 -31 89 -67 120 -67 27 0 26 -18 -2 -22 -12 -2 -23 -9 -26 -15 -5 -18 41 -33 101 -33 46 0 49 -1 31 -14 -19 -14 -19 -15 0 -22 12 -4 38 -1 65 9 25 9 47 15 49 13 2 -2 -11 -26 -27 -54 -32 -51 -42 -87 -19 -64 26 26 25 10 -3 -40 -33 -61 -36 -80 -11 -71 15 6 15 4 -2 -15 -10 -12 -27 -24 -37 -27 -24 -8 -15 -25 12 -25 18 0 19 -1 3 -24 -8 -14 -29 -28 -45 -31 -38 -9 -45 -24 -52 -120 -4 -44 -16 -116 -27 -160 -24 -89 -21 -139 11 -191 42 -69 144 -80 203 -22 26 26 28 33 21 74 -6 39 -3 51 20 85 14 22 30 37 34 35 5 -3 33 2 62 11 30 9 72 17 94 19 94 9 113 11 124 18 7 5 15 5 18 2 4 -3 2 -6 -4 -6 -5 0 -10 -6 -10 -12 0 -7 -4 -26 -8 -42 -7 -26 -6 -29 14 -23 16 4 21 1 21 -13 0 -10 18 -33 41 -51 22 -19 55 -48 72 -65 48 -46 71 -55 159 -60 99 -5 155 8 170 41 20 45 -26 115 -77 115 -22 0 -65 38 -65 57 0 6 8 13 18 15 10 3 26 22 36 42 11 23 24 36 36 36 23 0 27 -18 5 -26 -8 -4 -15 -10 -15 -15 0 -12 39 -10 65 2 17 8 16 9 -8 5 -27 -3 -27 -3 -12 20 21 32 20 34 -20 27 -28 -4 -35 -2 -35 11 0 20 -6 20 -60 1 -23 -8 -53 -15 -67 -15 -21 0 -22 2 -13 21 16 29 7 33 -28 15 -16 -8 -49 -18 -73 -22 l-44 -7 25 28 c28 31 32 30 -42 8 -23 -6 -23 -6 -4 15 11 12 17 24 15 27 -3 2 -21 -15 -41 -38 -19 -23 -50 -50 -68 -61 l-32 -18 12 23 c11 21 8 20 -21 -7 -38 -35 -66 -48 -71 -33 -2 6 -21 3 -48 -6 -25 -9 -54 -15 -65 -14 -61 4 -70 0 -104 -57 -30 -50 -32 -59 -21 -82 8 -19 8 -28 1 -30 -6 -2 -11 -12 -11 -22 0 -10 -10 -26 -22 -34 -27 -19 -42 -21 -32 -3 6 10 4 10 -7 0 -18 -18 -70 -16 -97 3 -26 18 -29 36 -4 28 12 -4 12 -2 -3 6 -11 7 -26 20 -32 28 -17 21 -16 94 2 162 8 30 20 99 27 153 l12 99 38 15 c21 8 47 27 58 41 22 27 26 23 10 -9 -9 -15 -7 -19 7 -19 14 0 15 -2 4 -9 -11 -7 -11 -9 0 -14 8 -3 4 -6 -8 -6 -14 -1 -23 -7 -23 -17 0 -10 6 -14 15 -11 18 7 30 -9 14 -19 -18 -11 11 -24 54 -24 39 0 48 -13 20 -29 -15 -8 -16 -12 -4 -23 8 -8 11 -8 7 -1 -3 6 -2 14 4 18 5 3 10 -1 10 -9 0 -12 10 -16 40 -16 42 0 51 -12 23 -30 -14 -8 -8 -9 27 -4 25 3 52 11 60 16 11 7 10 8 -5 3 -16 -5 -17 -4 -8 6 10 10 16 9 28 -1 14 -12 18 -12 25 0 4 7 6 18 4 25 -3 6 7 17 21 23 14 7 28 19 31 27 7 17 44 21 44 4 0 -5 4 -8 9 -5 5 4 12 0 14 -6 4 -10 8 -9 16 2 8 11 11 11 11 2 0 -7 -10 -17 -22 -22 -17 -6 -18 -9 -6 -9 24 -1 48 27 41 46 -4 11 -3 14 6 9 10 -6 10 -4 0 12 -7 12 -17 18 -21 16 -4 -3 -8 2 -8 10 0 9 5 16 12 16 6 0 8 3 5 6 -4 4 -25 -6 -48 -22 -47 -33 -101 -46 -79 -20 7 9 19 16 27 16 15 0 105 69 131 100 7 8 12 11 11 5 -3 -21 1 -35 11 -35 6 0 10 7 10 16 0 8 5 12 11 9 13 -8 3 -109 -11 -113 -6 -2 -10 -8 -10 -14 0 -17 31 13 43 42 l11 25 4 -27 c4 -33 26 -37 44 -8 18 28 23 25 23 -12 0 -41 19 -46 48 -14 31 34 40 33 32 -3 -9 -40 10 -48 47 -21 35 26 46 20 31 -20 -12 -33 -9 -40 23 -40 15 0 36 16 61 45 42 51 57 57 43 19 -23 -60 -7 -70 38 -24 17 17 33 30 37 30 4 0 4 -13 0 -30 -5 -24 -3 -30 9 -30 16 0 28 11 61 55 14 19 14 18 8 -14 l-6 -34 36 6 c37 6 37 5 37 -29 0 -35 8 -42 27 -23 12 12 22 1 38 -46 7 -20 16 -29 28 -27 9 2 17 -2 17 -8 0 -10 -13 -14 -37 -11 -6 1 -14 -3 -18 -9 -3 -5 -16 -10 -28 -10 -15 0 -18 3 -9 9 10 6 10 10 -2 20 -12 10 -19 10 -38 -3 -12 -9 -33 -16 -46 -16 -19 0 -21 3 -12 19 15 29 -4 34 -42 11 -18 -11 -41 -20 -51 -20 -15 0 -16 3 -7 21 7 11 9 23 6 26 -9 9 -36 -18 -30 -29 4 -6 0 -14 -7 -19 -29 -18 5 -23 49 -7 52 19 60 18 37 -6 -9 -9 -13 -16 -8 -17 4 -1 19 -2 32 -2 13 -1 26 -9 28 -17 3 -10 2 -11 -4 -3 -12 17 -15 -88 -3 -118 16 -38 60 -59 124 -59 102 0 166 46 166 119 0 22 14 28 26 10 3 -6 16 -8 29 -5 13 3 27 0 34 -8 6 -7 29 -21 51 -31 21 -10 38 -23 37 -29 -1 -6 8 -12 20 -14 12 -2 37 -18 55 -36 56 -56 207 -73 286 -32 34 18 42 43 28 97 -8 30 -17 39 -53 55 -37 16 -50 29 -72 74 -20 39 -26 62 -21 80 4 14 10 39 14 55 7 29 7 29 -8 10 -9 -11 -16 -14 -16 -7 0 17 -20 15 -20 -2 0 -54 -49 6 -51 61 0 26 -1 27 -9 6 -9 -22 13 -74 58 -141 11 -15 31 -48 46 -75 18 -31 38 -52 60 -61 18 -8 41 -24 50 -37 21 -30 21 -83 0 -100 -15 -12 -16 -11 -10 11 6 23 6 23 -5 5 -17 -27 -29 -35 -61 -35 -22 0 -26 3 -21 18 7 16 6 16 -11 0 -36 -36 -133 -14 -193 44 -19 18 -36 27 -44 23 -8 -5 -10 -4 -5 4 5 7 -10 18 -41 32 -26 11 -63 35 -82 52 -21 20 -32 25 -28 15 15 -41 -30 -10 -81 57 -13 17 -21 22 -18 13 6 -20 -12 -25 -19 -5 -7 18 8 98 19 100 5 1 10 -8 11 -21 2 -27 29 -57 43 -48 6 3 13 24 17 46 8 46 24 62 32 31 3 -11 9 -19 13 -16 5 3 12 0 16 -6 11 -18 24 12 17 40 -4 17 -2 22 6 17 7 -5 11 2 11 21 1 26 2 27 14 10 14 -17 15 -17 21 4 6 18 2 28 -19 44 -15 12 -23 24 -20 28 4 4 16 0 26 -10 10 -9 21 -13 26 -8 4 4 1 10 -6 12 -6 3 -10 9 -6 14 3 5 0 9 -5 9 -6 0 -10 3 -9 8 1 4 -1 17 -6 30 -8 25 -26 30 -26 6 0 -29 -25 -8 -31 27 -4 19 -7 25 -8 14 -2 -20 -31 -67 -31 -49 0 5 -9 -2 -19 -15 l-19 -24 -13 24 c-14 27 -19 159 -5 159 5 0 19 11 32 25 13 14 19 25 14 25 -6 0 -15 -9 -22 -20 -7 -11 -16 -20 -20 -20 -11 0 -10 64 2 97 9 25 9 26 -4 9 -8 -10 -19 -15 -25 -11 -6 3 -11 2 -11 -3 0 -6 -7 -12 -15 -16 -22 -8 -4 23 30 53 20 16 30 20 35 11 5 -8 9 -7 14 6 10 26 0 29 -46 11 -23 -10 -46 -13 -50 -9 -5 5 10 34 32 66 22 31 40 59 40 61 0 3 -27 5 -60 5 -33 0 -60 3 -60 7 0 4 19 27 42 50 40 41 41 43 18 43 -35 0 -70 11 -70 21 0 5 19 18 43 30 l42 22 -35 9 c-36 10 -64 28 -43 28 7 0 24 5 40 11 22 8 25 12 13 20 -11 8 -8 8 10 3 35 -9 36 -12 14 -28 -26 -19 -14 -28 47 -36 34 -5 55 -2 67 6 31 24 34 14 4 -11 -32 -27 -47 -32 -36 -12 4 6 -7 -1 -24 -17 -37 -35 -32 -50 14 -41 l35 6 -28 -50 c-15 -27 -25 -53 -21 -57 4 -4 26 0 47 8 22 9 42 14 44 11 3 -2 -4 -22 -15 -44 -11 -23 -17 -43 -14 -46 10 -10 56 7 82 32 15 14 32 25 38 25 6 0 4 -5 -4 -10 -20 -13 -8 -13 26 0 15 6 34 8 41 5 12 -4 12 -9 -1 -27 -9 -12 -16 -26 -16 -30 0 -17 32 -7 54 17 28 30 36 31 36 5 0 -11 5 -20 11 -20 5 0 8 4 5 9 -6 9 40 54 99 99 l30 22 -30 -6 c-16 -4 -58 -19 -93 -35 -34 -15 -60 -24 -57 -18 10 15 85 51 144 69 30 8 56 21 59 29 8 25 -157 -3 -250 -43 -58 -25 -45 -8 15 19 53 25 151 44 222 45 29 1 49 9 75 30 19 17 43 30 53 30 14 0 17 3 9 13 -17 20 -32 87 -20 87 7 0 9 18 5 50 -4 35 -3 49 5 44 16 -10 -1 38 -23 62 -11 11 -19 24 -19 28 0 11 51 -22 68 -42 6 -9 12 -12 12 -8 0 5 6 3 13 -3 11 -8 16 -5 25 13 9 20 7 27 -9 42 -11 10 -17 24 -15 31 4 10 -2 12 -22 7 -19 -4 -23 -3 -14 4 10 7 5 11 -22 16 -20 4 -36 9 -36 12 0 14 52 104 60 104 6 0 10 -22 10 -50 0 -27 5 -50 10 -50 13 0 13 71 0 104 -5 14 -14 26 -20 26 -6 0 -39 -19 -73 -42 -79 -55 -114 -71 -120 -55 -3 9 -9 9 -24 1 -34 -21 -83 -9 -137 33 -70 54 -82 57 -110 30 -23 -23 -46 -100 -46 -151 0 -16 -7 -26 -21 -29 -12 -3 -18 -10 -15 -15 3 -6 -17 -15 -44 -22 -47 -11 -69 -30 -35 -30 8 0 15 -4 15 -8 0 -15 -58 -42 -89 -42 -33 0 -38 -8 -18 -29 6 -7 -4 -4 -23 8 -22 13 -37 17 -41 10 -4 -7 -24 -2 -57 15 -60 30 -66 31 -58 10 4 -11 2 -14 -6 -11 -43 19 -137 56 -157 62 -19 6 -23 4 -18 -7 4 -13 -2 -13 -46 -1 -61 16 -161 18 -152 3 4 -6 -11 -10 -39 -10 -62 0 -145 -19 -181 -40 -17 -10 -54 -22 -83 -26 -28 -3 -52 -11 -52 -16 0 -19 -46 4 -77 39 -27 29 -33 33 -33 17 0 -16 -2 -17 -10 -4 -5 8 -10 30 -10 48 0 20 -4 31 -10 27 -18 -11 -10 11 10 30 24 22 26 35 4 35 -13 0 -12 5 5 26 27 34 29 63 4 43 -15 -13 -16 -11 -9 15 24 99 20 128 -26 150 -17 9 -37 16 -44 16 -8 0 -11 6 -8 15 9 22 -23 30 -78 18 -40 -8 -48 -7 -44 4 7 16 -10 16 -49 -1z m-9 -37 c-14 -11 -26 -25 -26 -31 0 -6 8 -4 18 5 29 26 88 47 134 47 30 0 39 -3 29 -9 -12 -8 -8 -11 15 -16 44 -9 59 -20 59 -43 0 -26 15 -42 16 -16 0 18 1 18 9 -2 9 -24 -3 -101 -19 -117 -8 -8 -11 -6 -11 7 0 13 -5 17 -20 13 -16 -4 -19 -1 -14 17 8 33 -19 52 -52 37 -34 -15 -35 -15 -28 14 4 15 2 25 -4 25 -23 0 -68 -23 -94 -47 l-27 -26 11 37 c6 20 8 39 5 42 -8 8 -53 -20 -86 -55 l-25 -26 24 40 c16 26 19 35 8 27 -14 -11 -16 -11 -14 2 3 20 55 76 81 86 35 15 39 11 11 -11z m-126 -48 c-5 -11 -15 -23 -22 -27 -7 -5 -8 -2 -3 7 21 37 44 55 25 20z m1771 -128 c24 -27 54 -59 64 -72 17 -21 18 -24 3 -18 -19 7 -34 -8 -18 -18 15 -9 12 -25 -5 -25 -8 0 -15 5 -15 12 0 6 -7 4 -18 -5 -10 -10 -25 -17 -33 -17 -8 1 -3 7 10 14 14 8 19 16 13 20 -6 3 -17 -1 -24 -9 -7 -9 -21 -25 -31 -36 -10 -12 -16 -26 -14 -33 3 -7 2 -18 -2 -25 -5 -7 -15 10 -26 45 -27 86 -8 214 33 214 10 0 38 -21 63 -47z m-1810 -103 c6 -16 17 -30 25 -30 8 0 17 0 22 -1 4 0 10 10 13 23 3 13 6 0 6 -30 -1 -46 -3 -51 -19 -46 -13 4 -21 -1 -27 -18 l-8 -23 -7 23 c-10 31 -29 16 -21 -17 l7 -26 -26 30 c-26 30 -39 92 -14 67 21 -21 28 -13 28 33 0 52 7 57 21 15z m2126 -116 c-9 -10 -38 16 -31 28 4 6 13 4 22 -6 9 -8 13 -19 9 -22z m-1422 -74 c-27 -12 -43 -12 -25 0 8 5 22 9 30 9 10 0 8 -3 -5 -9z m1371 -11 c3 -6 1 -15 -6 -19 -8 -5 -10 -17 -6 -35 5 -20 12 -26 29 -23 17 2 23 12 27 38 5 31 7 33 14 13 4 -13 4 -32 1 -43 -14 -45 -115 -12 -115 38 0 34 40 56 56 31z m-366 -53 c0 -2 -7 -6 -15 -10 -8 -3 -15 -1 -15 4 0 6 7 10 15 10 8 0 15 -2 15 -4z m-72 -101 c-6 -14 -13 -23 -15 -21 -5 5 15 46 22 46 3 0 -1 -11 -7 -25z m72 15 c0 -13 -38 -32 -51 -25 -14 10 9 35 32 35 11 0 19 -4 19 -10z m-1200 -40 c-36 -30 -60 -38 -60 -19 0 6 -7 8 -17 4 -12 -4 -14 -3 -8 3 10 10 92 41 110 42 5 0 -6 -13 -25 -30z m-350 -44 c0 -3 -4 -8 -10 -11 -5 -3 -10 -1 -10 4 0 6 5 11 10 11 6 0 10 -2 10 -4z m270 -15 c0 -5 -7 -12 -16 -15 -14 -5 -15 -4 -4 9 14 17 20 19 20 6z m1252 -13 c-7 -7 -12 -8 -12 -2 0 14 12 26 19 19 2 -3 -1 -11 -7 -17z m-9 -35 c-4 -11 -3 -14 5 -9 7 4 12 2 12 -3 0 -13 -3 -13 -24 -5 -15 6 -11 34 5 34 4 0 5 -7 2 -17z m-1303 -84 c-49 -43 -63 -45 -28 -4 13 15 24 31 24 36 3 17 4 17 26 11 20 -5 19 -8 -22 -43z m176 -34 c-9 -14 -24 -25 -33 -25 -12 0 -8 7 13 28 34 34 43 33 20 -3z m-236 15 c0 -5 -5 -10 -11 -10 -5 0 -7 5 -4 10 3 6 8 10 11 10 2 0 4 -4 4 -10z m125 -2 c-11 -6 -32 -20 -47 -30 -16 -11 -28 -14 -28 -9 0 14 59 51 80 51 11 -1 9 -4 -5 -12z m-115 -42 c0 -2 -7 -9 -15 -16 -13 -11 -14 -10 -9 4 5 14 24 23 24 12z m31 -57 c-13 -11 -27 -17 -30 -14 -3 4 5 15 19 25 32 24 42 14 11 -11z m189 7 c0 -2 -8 -10 -17 -17 -16 -13 -17 -12 -4 4 13 16 21 21 21 13z m-270 -36 c0 -5 -5 -10 -11 -10 -5 0 -7 5 -4 10 3 6 8 10 11 10 2 0 4 -4 4 -10z m40 -3 c0 -8 -9 -22 -20 -32 -23 -20 -24 -17 -10 19 10 27 30 35 30 13z m413 -59 c-22 -25 -33 -39 -64 -80 -11 -16 -25 -28 -30 -28 -6 0 1 15 15 33 14 19 23 37 18 42 -4 5 -2 5 4 2 6 -3 24 7 39 23 33 35 48 41 18 8z m-73 8 c0 -3 -4 -8 -10 -11 -5 -3 -10 -1 -10 4 0 6 5 11 10 11 6 0 10 -2 10 -4z m-290 -16 c0 -5 -5 -10 -11 -10 -5 0 -7 5 -4 10 3 6 8 10 11 10 2 0 4 -4 4 -10z m5 -170 c-3 -5 -12 -10 -18 -10 -7 0 -6 4 3 10 19 12 23 12 15 0z m-21 -51 c-29 -11 -34 -10 -28 5 3 8 13 12 27 8 20 -5 20 -6 1 -13z m1013 -21 c-3 -8 -6 -5 -6 6 -1 11 2 17 5 13 3 -3 4 -12 1 -19z m20 -20 c-3 -8 -6 -5 -6 6 -1 11 2 17 5 13 3 -3 4 -12 1 -19z m599 -88 c0 -11 -4 -20 -8 -20 -4 0 -8 9 -8 20 0 11 4 20 8 20 4 0 8 -9 8 -20z m-526 -6 c0 -8 -4 -12 -10 -9 -5 3 -10 10 -10 16 0 5 5 9 10 9 6 0 10 -7 10 -16z m-90 -94 c5 0 20 4 34 10 21 8 26 7 26 -6 0 -13 5 -12 27 5 24 20 27 20 44 5 10 -9 22 -13 28 -10 5 4 12 2 16 -4 3 -5 -1 -10 -9 -10 -9 0 -16 -5 -16 -11 0 -7 10 -9 26 -5 27 7 27 7 20 -40 -7 -54 -31 -98 -50 -91 -6 3 -20 -1 -31 -9 -10 -8 -30 -14 -43 -14 -25 0 -25 0 -6 23 19 22 19 22 -2 5 -23 -20 -75 -24 -104 -8 -30 16 -43 72 -29 120 14 46 51 82 57 55 2 -8 7 -15 12 -15z m-544 -15 c-8 -21 22 -31 46 -16 10 6 23 9 28 6 4 -3 21 0 36 5 25 10 30 8 52 -20 15 -19 33 -30 48 -30 35 0 74 -42 74 -79 0 -28 -20 -57 -20 -29 0 8 -5 6 -11 -4 -6 -11 -22 -18 -39 -18 -23 0 -28 4 -24 18 5 16 5 16 -6 0 -8 -13 -24 -18 -58 -18 -67 0 -112 15 -147 50 -16 17 -45 43 -64 58 l-34 28 18 28 19 28 18 -24 18 -23 21 28 c23 30 34 35 25 12z"/><path d="M8990 6465 c-14 -8 -20 -14 -15 -14 6 0 21 6 35 14 14 8 21 14 15 14 -5 0 -21 -6 -35 -14z"/><path d="M8952 6414 c-2 -21 1 -24 12 -15 20 17 31 -17 11 -39 -10 -11 -15 -37 -14 -81 0 -64 1 -64 43 -95 37 -27 44 -29 56 -16 11 13 11 17 -3 27 -9 7 -17 18 -17 26 0 8 -7 22 -15 33 -12 16 -12 22 1 47 16 32 12 47 -34 107 -30 39 -37 40 -40 6z m38 -134 c0 -5 -4 -10 -10 -10 -5 0 -10 5 -10 10 0 6 5 10 10 10 6 0 10 -4 10 -10z m10 -45 c0 -14 -4 -25 -9 -25 -4 0 -6 11 -3 25 2 14 6 25 8 25 2 0 4 -11 4 -25z"/><path d="M9057 6153 c-4 -3 -7 -23 -7 -43 0 -21 -7 -43 -15 -50 -25 -20 -29 -4 -12 41 11 29 12 38 3 30 -7 -6 -16 -7 -20 -3 -4 4 -5 -5 -1 -19 5 -19 0 -32 -22 -54 -23 -23 -24 -26 -6 -16 30 15 35 1 15 -40 -20 -40 -72 -69 -124 -69 -20 0 -40 -4 -43 -10 -3 -5 3 -10 14 -10 11 0 29 -12 40 -26 12 -15 21 -22 21 -16 0 6 -4 14 -10 17 -21 13 -9 33 24 39 40 8 68 29 93 72 10 17 26 42 35 55 29 42 42 130 15 102z"/><path d="M8928 6023 c7 -3 16 -2 19 1 4 3 -2 6 -13 5 -11 0 -14 -3 -6 -6z"/><path d="M8635 5970 l-28 -29 31 11 c17 7 29 14 27 17 -3 2 0 10 6 18 22 26 -8 12 -36 -17z"/><path d="M8870 5865 c0 -4 11 -20 25 -37 14 -16 25 -26 25 -23 0 4 -11 20 -25 37 -14 16 -25 26 -25 23z"/><path d="M8881 5770 c6 -16 13 -30 16 -30 3 0 3 7 -1 15 -3 8 0 15 6 15 7 0 6 5 -2 15 -20 25 -30 17 -19 -15z"/><path d="M8917 5776 c-3 -8 -2 -18 3 -21 13 -8 24 15 12 27 -6 6 -11 4 -15 -6z"/><path d="M8857 5710 c7 -41 13 -51 13 -24 0 17 3 16 20 -6 l20 -25 -1 35 c-1 19 -3 27 -6 16 -5 -17 -7 -16 -29 10 l-24 29 7 -35z"/><path d="M8831 5622 c-1 -30 17 -64 30 -57 5 4 9 18 8 33 0 23 -1 24 -8 7 -7 -18 -9 -17 -19 10 -9 27 -11 27 -11 7z"/><path d="M8283 5603 c-7 -2 -13 -8 -13 -12 0 -12 40 -8 41 4 1 11 -11 15 -28 8z"/><path d="M8780 5531 c0 -11 5 -32 11 -48 l11 -28 14 30 c7 17 13 39 13 50 -1 12 -5 6 -12 -15 l-11 -35 -4 33 c-4 34 -22 45 -22 13z"/><path d="M8723 5464 c-3 -8 -1 -20 6 -27 8 -8 11 -4 11 16 0 30 -7 35 -17 11z"/><path d="M8748 5440 c-9 -16 -13 -32 -9 -35 9 -5 37 52 30 60 -3 2 -12 -9 -21 -25z"/><path d="M8002 5369 c2 -6 8 -10 13 -10 5 0 11 4 13 10 2 6 -4 11 -13 11 -9 0 -15 -5 -13 -11z"/><path d="M7180 5335 c-14 -8 -20 -14 -14 -15 5 0 19 7 30 15 24 18 16 19 -16 0z"/></g></g>
<g transform="translate(1105.9,-711.1)"><g transform="translate(0,1024) scale(0.1,-0.1)"><path d="M804 2059 c-21 -12 -49 -30 -61 -42 -16 -14 -23 -16 -23 -7 0 8 -15 0 -34 -19 -32 -31 -64 -85 -82 -136 -6 -19 -7 -18 -13 5 -7 25 -7 24 -19 -9 -14 -41 -16 -140 -2 -175 10 -28 2 -34 -18 -14 -26 26 -12 -49 18 -96 29 -45 29 -47 9 -41 l-22 7 19 -33 c11 -19 34 -43 52 -54 36 -23 41 -36 12 -28 -11 3 -20 1 -20 -4 0 -23 83 -73 120 -73 12 0 18 -4 15 -10 -3 -5 -15 -10 -26 -10 -10 0 -19 -4 -19 -10 0 -18 42 -32 85 -28 36 2 41 1 32 -11 -10 -12 -5 -13 31 -9 23 4 42 4 42 1 0 -3 -9 -16 -20 -30 -24 -31 -25 -43 -3 -43 14 0 15 -2 1 -17 -15 -17 -48 -77 -48 -87 0 -2 8 -6 18 -8 12 -2 4 -10 -25 -23 -46 -22 -55 -35 -23 -35 11 0 20 -4 20 -8 0 -8 -17 -17 -90 -52 -8 -4 -17 -16 -18 -26 -2 -10 -10 -32 -17 -49 -7 -16 -23 -57 -36 -90 -12 -33 -30 -71 -39 -85 -44 -64 -51 -170 -15 -210 27 -29 79 -36 113 -14 32 21 51 44 52 62 0 8 23 40 50 71 54 63 103 86 157 75 19 -4 42 0 58 9 27 13 22 14 -66 10 -83 -3 -96 -6 -109 -26 -8 -12 -34 -43 -57 -68 -24 -25 -43 -53 -43 -61 0 -9 -9 -26 -19 -40 -15 -19 -30 -25 -62 -26 -60 -3 -76 15 -78 88 -1 52 4 71 39 142 22 46 51 114 64 153 13 38 30 73 38 76 7 3 28 13 46 22 19 10 39 14 44 10 6 -3 8 -1 4 5 -3 6 -2 13 4 17 15 10 12 23 -7 28 -15 3 -14 6 7 14 18 7 28 7 37 -3 15 -15 17 -34 3 -34 -5 0 -10 -4 -10 -10 0 -5 7 -10 16 -10 8 0 12 -5 9 -10 -4 -6 -10 -8 -15 -5 -11 7 -72 -30 -63 -38 3 -4 19 -7 35 -7 25 0 28 -3 23 -20 -6 -18 -2 -20 39 -20 25 0 46 -4 46 -10 0 -5 -5 -10 -12 -10 -6 0 -9 -2 -7 -5 3 -2 20 0 38 5 24 7 43 5 67 -5 45 -19 70 -10 139 49 32 28 55 44 50 36 -8 -13 -7 -13 8 -1 23 18 34 7 16 -16 -13 -16 -12 -17 2 -5 9 7 17 24 17 39 0 15 9 34 20 44 12 9 18 20 14 24 -4 5 5 0 19 -11 21 -15 25 -23 18 -41 -4 -12 -4 -25 0 -28 5 -3 7 -14 4 -25 -7 -26 1 -25 27 2 l20 22 0 -32 c0 -35 19 -43 40 -17 18 22 30 18 30 -10 0 -18 4 -23 15 -19 8 4 15 10 15 16 0 5 -4 7 -9 3 -5 -3 -2 9 6 27 11 22 18 27 21 18 3 -8 9 -18 15 -21 6 -5 6 -18 -1 -38 -9 -25 -8 -33 2 -37 18 -7 72 21 79 41 4 8 13 15 21 15 12 0 12 -5 3 -30 -6 -16 -8 -32 -5 -35 9 -9 47 12 81 43 20 19 27 22 27 10 0 -9 -7 -21 -15 -28 -8 -7 -15 -16 -15 -21 0 -19 37 -8 67 20 l32 29 -6 -29 c-5 -25 -2 -29 15 -29 12 0 26 9 32 20 12 23 32 27 24 5 -4 -10 0 -15 14 -15 11 0 23 8 25 18 2 9 2 2 0 -15 -2 -19 1 -33 7 -33 5 0 10 5 10 11 0 8 4 8 14 0 12 -10 15 -8 18 11 3 19 7 15 18 -20 8 -25 18 -41 25 -38 17 6 45 -60 32 -73 -15 -15 -27 -14 -27 4 0 17 -6 18 -35 5 -17 -7 -17 -9 -2 -9 9 -1 17 -8 17 -16 0 -19 11 -19 36 0 28 21 47 19 41 -5 -5 -19 8 -26 37 -21 8 2 -3 -19 -39 -72 -10 -14 -10 -25 -2 -47 8 -20 8 -38 1 -57 -11 -34 -58 -45 -149 -37 -64 6 -90 21 -99 58 -7 28 18 161 33 180 13 16 -2 32 -19 21 -16 -10 -12 7 7 27 13 14 13 18 2 18 -20 0 -45 -18 -36 -26 4 -4 2 -13 -4 -21 -9 -10 -8 -13 0 -13 7 0 9 -5 5 -12 -5 -8 -2 -9 10 -5 13 5 16 3 13 -11 -33 -118 -32 -176 4 -208 16 -14 40 -20 100 -23 126 -5 160 20 145 104 -8 39 7 75 29 75 9 0 15 9 15 21 0 14 5 19 14 16 8 -3 17 -1 19 6 2 7 15 2 32 -16 29 -28 50 -31 50 -7 0 7 -6 15 -14 18 -8 3 -11 0 -7 -7 18 -29 -16 -6 -48 32 -25 29 -36 37 -36 25 0 -24 -16 -22 -34 4 -15 21 -15 36 0 136 5 32 7 33 37 26 18 -3 42 -18 55 -31 l22 -24 10 26 c19 49 22 75 11 75 -6 0 -11 8 -11 18 0 14 2 15 10 2 8 -13 10 -12 10 3 0 9 -5 17 -11 17 -5 0 -7 5 -4 11 4 6 0 9 -11 7 -13 -2 -22 7 -30 31 -7 22 -13 29 -17 20 -4 -10 -6 -10 -6 4 -1 9 -5 17 -11 17 -5 0 -10 8 -10 17 0 9 -3 13 -6 10 -4 -3 -15 -2 -25 3 -9 6 -19 7 -22 2 -5 -9 1 13 10 35 4 10 2 14 -4 10 -6 -4 -16 0 -23 8 -9 10 -9 15 -1 15 6 0 11 10 11 23 0 16 3 18 9 8 7 -11 9 -11 14 0 3 8 6 -1 6 -18 1 -37 20 -44 42 -15 13 15 12 16 -4 3 -9 -8 -21 -11 -24 -7 -7 6 6 66 23 110 8 20 -1 20 -63 1 -33 -10 -30 13 7 55 42 50 39 57 -25 53 -30 -2 -55 0 -55 4 0 4 16 24 36 45 l37 37 -29 6 c-49 11 -56 14 -49 25 4 6 21 17 38 24 l32 14 -32 12 c-43 15 -41 24 4 38 41 13 51 9 35 -11 -16 -19 -5 -27 37 -27 l35 0 -29 -30 c-16 -16 -25 -33 -22 -37 4 -3 7 -2 7 3 0 6 14 20 31 33 l30 23 -15 -31 c-21 -39 -20 -41 9 -41 31 0 31 -1 0 -46 -14 -20 -23 -39 -20 -42 3 -3 23 1 45 8 22 7 43 11 45 8 3 -3 -2 -22 -11 -42 -10 -19 -14 -39 -10 -43 12 -12 81 33 78 51 -2 11 4 16 19 16 18 0 19 -2 9 -15 -14 -17 -7 -19 20 -5 10 5 25 7 33 4 13 -5 13 -9 -1 -34 -24 -42 -8 -47 33 -11 42 36 49 38 40 11 -9 -27 3 -25 27 5 11 14 37 34 58 45 21 11 42 25 46 31 11 18 -75 0 -130 -28 -26 -13 -45 -19 -41 -13 11 17 106 60 135 60 14 1 39 7 55 15 l30 13 -35 2 c-54 3 -132 0 -165 -6 -25 -4 -27 -3 -12 6 10 7 63 13 118 15 89 3 104 6 138 29 20 14 42 26 48 26 7 0 5 17 -6 45 -10 30 -12 48 -6 53 14 10 13 115 -1 133 -6 8 -14 20 -19 27 -14 26 32 -6 60 -40 l26 -33 19 24 c26 30 25 37 -4 57 -15 9 -23 21 -19 30 4 10 0 12 -11 8 -8 -3 -22 1 -31 9 -8 8 -20 17 -26 19 -13 4 35 88 51 88 5 0 11 -24 13 -52 3 -49 3 -48 5 15 2 50 -2 69 -12 73 -8 3 -46 -16 -85 -42 -66 -44 -76 -47 -143 -50 l-72 -2 -54 49 c-87 79 -118 66 -135 -56 -9 -60 -14 -75 -28 -75 -9 0 -19 -6 -22 -14 -3 -8 -22 -19 -41 -26 -38 -12 -48 -30 -18 -30 12 0 8 -6 -13 -20 -16 -11 -47 -20 -67 -20 -42 0 -47 -6 -20 -27 15 -12 13 -13 -18 -7 -19 4 -51 8 -70 9 -19 1 -59 12 -88 23 -60 25 -66 26 -57 12 9 -14 4 -13 -57 14 -70 31 -134 44 -123 26 6 -10 4 -12 -8 -7 -56 21 -215 19 -202 -4 4 -5 -14 -9 -42 -9 -53 0 -123 -16 -123 -29 0 -9 -90 -31 -127 -31 -16 0 -38 13 -59 35 -21 22 -34 30 -37 22 -3 -6 -6 5 -6 25 -1 20 -6 38 -13 40 -8 3 -5 14 10 33 16 19 19 31 11 35 -8 6 -8 13 0 28 15 28 14 45 -2 39 -11 -4 -13 7 -9 48 5 66 -8 92 -53 101 -20 3 -35 12 -35 20 0 15 -24 17 -55 4 -17 -7 -17 -9 -3 -9 11 -1 15 -6 12 -16 -5 -11 1 -13 30 -8 40 6 66 -9 66 -38 0 -21 16 -26 23 -6 3 6 6 -5 6 -25 1 -20 -4 -49 -10 -65 l-11 -28 -10 28 c-7 21 -15 26 -28 22 -13 -4 -20 1 -25 15 -7 21 -16 22 -57 5 -13 -5 -15 -2 -11 14 3 12 1 21 -6 21 -21 0 -71 -30 -72 -43 0 -6 -4 -2 -9 11 -13 31 -23 28 -63 -18 l-34 -41 -7 32 c-3 18 -4 34 -1 37 3 3 5 -3 5 -14 0 -16 2 -15 17 6 25 38 66 80 88 92 l20 11 -20 -23 c-19 -21 -19 -22 -1 -19 10 2 24 13 30 24 6 11 15 23 21 27 5 4 7 9 4 12 -3 3 -23 -4 -45 -15z m-134 -117 c0 -5 -7 -17 -15 -28 -14 -18 -14 -17 -4 9 12 27 19 34 19 19z m1685 -28 c23 -15 95 -104 95 -118 0 -3 -10 -6 -21 -6 -19 0 -20 -2 -8 -16 12 -15 11 -16 -9 -10 -16 5 -22 3 -22 -7 0 -15 -29 -32 -38 -22 -3 3 1 5 8 5 11 0 11 3 2 12 -16 16 -34 -2 -35 -36 -1 -14 -5 -26 -9 -26 -24 0 -38 162 -18 214 11 30 22 32 55 10z m-1625 -76 c0 -12 6 -29 13 -37 12 -14 11 -19 -5 -33 -17 -17 -18 -17 -18 0 0 9 -3 34 -6 55 -5 24 -3 37 5 37 6 0 11 -10 11 -22z m-48 -83 c10 -22 8 -27 -15 -45 -16 -13 -24 -28 -22 -40 5 -29 0 -25 -25 16 -24 38 -21 55 6 34 13 -12 17 -11 24 1 5 7 7 24 3 36 -7 31 14 30 29 -2z m1992 -71 c8 -22 8 -24 -8 -24 -15 0 -28 24 -19 34 11 10 21 7 27 -10z m-979 -22 l30 -10 -28 -1 c-34 -1 -70 16 -61 30 3 6 10 6 17 1 7 -5 26 -14 42 -20z m385 -78 c0 -2 -7 -4 -15 -4 -8 0 -15 4 -15 10 0 5 7 7 15 4 8 -4 15 -8 15 -10z m556 1 c14 -13 14 -15 0 -15 -17 0 -21 -27 -7 -48 13 -21 44 -10 52 18 l7 25 1 -26 c1 -34 -21 -53 -51 -44 -35 11 -58 35 -58 61 0 13 8 28 18 33 22 13 21 13 38 -4z m-353 -41 c-7 -20 -18 -17 -20 5 -1 13 3 18 12 15 8 -3 11 -12 8 -20z m-1428 -44 c3 -5 -3 -10 -15 -10 -12 0 -18 5 -15 10 3 6 10 10 15 10 5 0 12 -4 15 -10z m1415 -24 c0 -2 -16 -16 -36 -31 -33 -25 -35 -26 -24 -6 6 12 21 26 33 31 27 11 27 11 27 6z m-1245 -56 c-3 -5 -1 -10 5 -10 6 0 8 -5 4 -12 -6 -9 -9 -9 -12 0 -2 7 -9 9 -15 5 -7 -4 -6 1 2 10 15 18 26 23 16 7z m1355 -10 c-20 -13 -33 -13 -25 0 3 6 14 10 23 10 15 0 15 -2 2 -10z m-1305 -47 c-34 -25 -55 -34 -55 -24 0 11 63 52 70 45 3 -3 -4 -12 -15 -21z m129 -25 c-19 -35 -56 -78 -66 -78 -6 0 -1 12 13 27 15 17 18 24 8 21 -9 -4 -16 -1 -16 8 0 8 2 12 4 10 3 -2 16 2 31 10 33 17 35 17 26 2z m-191 -38 c7 0 18 -4 26 -9 11 -7 6 -16 -24 -43 -21 -18 -43 -39 -49 -46 -29 -35 -38 -41 -50 -36 -8 3 -21 -5 -30 -18 -9 -12 -16 -18 -16 -12 0 30 88 123 110 117 3 -1 17 8 30 19 l25 20 -27 -16 c-23 -14 -29 -14 -40 -2 -11 12 -16 12 -33 -2 -11 -9 -4 0 15 21 28 30 36 34 43 22 4 -8 13 -15 20 -15z m-29 -115 c-4 -8 -8 -15 -10 -15 -2 0 -4 7 -4 15 0 8 4 15 10 15 5 0 7 -7 4 -15z m-8 -51 c-15 -14 -31 -22 -35 -19 -3 4 7 17 24 30 38 31 49 21 11 -11z m240 8 c0 -10 -8 -18 -18 -18 -16 0 -16 2 -1 18 9 10 17 18 17 18 1 0 2 -8 2 -18z m35 -83 c-31 -25 -41 -15 -11 11 13 11 26 17 29 14 3 -3 -5 -14 -18 -25z m-44 -41 c-3 -8 -6 -5 -6 6 -1 11 2 17 5 13 3 -3 4 -12 1 -19z m16 -33 c-17 -23 -33 -32 -33 -19 0 12 35 52 43 47 4 -2 -1 -15 -10 -28z m548 -38 c-10 -9 -11 -8 -5 6 3 10 9 15 12 12 3 -3 0 -11 -7 -18z m293 -216 c-6 -6 -24 19 -24 34 1 6 7 1 15 -9 8 -11 12 -22 9 -25z"/><path d="M2835 1750 c-3 -6 1 -7 9 -4 18 7 21 14 7 14 -6 0 -13 -4 -16 -10z"/><path d="M2825 1710 c17 -19 17 -20 -1 -20 -12 0 -15 -3 -7 -8 8 -5 8 -17 -3 -47 -22 -65 -18 -84 27 -126 24 -22 38 -42 34 -49 -4 -7 4 -4 18 5 22 14 24 19 14 36 -6 10 -15 19 -20 19 -4 0 -7 6 -6 13 1 6 -1 24 -5 40 -5 17 -4 32 4 41 9 11 9 20 -1 38 -20 38 -52 78 -62 78 -6 0 -2 -9 8 -20z m15 -120 c0 -5 -4 -10 -10 -10 -5 0 -10 5 -10 10 0 6 5 10 10 10 6 0 10 -4 10 -10z m-3 -52 c-3 -8 -6 -5 -6 6 -1 11 2 17 5 13 3 -3 4 -12 1 -19z"/><path d="M2900 1432 c0 -34 -22 -68 -38 -58 -6 4 -9 14 -6 24 5 16 5 16 -6 0 -6 -10 -18 -22 -28 -28 -16 -11 -15 -11 1 -6 31 10 37 -3 19 -37 -21 -37 -73 -67 -117 -67 -16 0 -37 -5 -45 -10 -12 -8 -12 -10 5 -10 11 0 26 -9 33 -20 8 -13 8 -20 1 -20 -5 0 -7 -5 -4 -10 5 -8 11 -7 21 1 13 10 12 14 -1 29 -20 22 -19 30 5 30 44 0 89 28 110 69 11 23 24 41 29 41 10 0 20 21 31 68 4 18 4 32 -1 32 -5 0 -9 -13 -9 -28z"/><path d="M2840 1446 c0 -2 7 -9 15 -16 9 -7 15 -8 15 -2 0 5 -7 12 -15 16 -8 3 -15 4 -15 2z"/><path d="M2518 1324 c-16 -8 -28 -19 -28 -24 0 -17 16 -11 40 15 27 29 25 30 -12 9z"/><path d="M2710 1138 c0 -9 9 -20 21 -23 27 -9 34 -1 19 22 -10 16 -11 16 -6 1 3 -10 3 -18 -1 -18 -3 0 -12 8 -19 18 -12 16 -13 16 -14 0z"/><path d="M2684 1087 c3 -10 7 -40 8 -65 l1 -47 7 45 c4 33 8 40 14 28 11 -24 26 -23 26 3 0 12 -4 18 -11 13 -7 -4 -20 4 -31 17 -15 18 -18 19 -14 6z"/><path d="M2196 1023 c-11 -11 -7 -20 9 -20 8 0 15 4 15 8 0 11 -16 20 -24 12z"/><path d="M2655 967 c-10 -23 14 -55 26 -35 5 7 9 20 9 28 0 13 -2 13 -9 1 -7 -11 -10 -10 -13 5 -5 18 -5 18 -13 1z"/><path d="M1312 925 c-6 -14 -10 -25 -8 -25 2 0 11 11 20 25 9 14 13 25 8 25 -5 0 -14 -11 -20 -25z"/><path d="M2471 903 c-1 -12 4 -25 9 -28 12 -7 12 2 0 30 -8 19 -9 19 -9 -2z"/><path d="M2596 894 c-11 -28 -6 -39 9 -20 8 11 15 23 15 28 0 14 -18 9 -24 -8z"/><path d="M2622 880 c-14 -23 -15 -30 -3 -30 8 0 24 41 18 47 -2 1 -8 -7 -15 -17z"/><path d="M2511 842 c0 -7 -5 -10 -11 -7 -19 12 -10 -7 24 -48 18 -23 54 -74 80 -113 34 -51 55 -73 80 -82 21 -8 38 -23 46 -41 14 -34 10 -86 -7 -86 -7 0 -18 -6 -24 -13 -7 -6 -26 -12 -42 -12 -26 0 -28 2 -16 17 13 16 13 16 -11 0 -13 -9 -34 -17 -45 -17 -34 1 -100 36 -138 74 -23 22 -42 34 -52 30 -9 -4 -15 -1 -15 8 0 8 -25 26 -55 41 -63 31 -77 34 -49 11 17 -14 17 -15 1 -10 -11 3 -16 2 -12 -4 3 -6 17 -10 30 -10 36 0 74 -20 68 -36 -4 -10 3 -14 24 -14 20 0 39 -10 59 -31 42 -44 90 -65 164 -73 77 -7 129 13 142 56 13 39 -18 98 -64 123 -24 13 -56 47 -88 93 -49 73 -50 74 -34 104 9 17 11 27 5 24 -6 -4 -11 -2 -11 4 0 6 -5 8 -11 4 -6 -3 -8 -15 -6 -26 4 -12 1 -18 -6 -15 -7 2 -15 17 -18 33 -4 16 -7 23 -8 16z"/><path d="M1246 801 c-22 -22 -43 -38 -48 -35 -4 3 -21 -4 -37 -15 -31 -23 -46 -27 -36 -11 9 14 -6 12 -35 -6 -14 -8 -17 -13 -8 -10 9 3 18 1 20 -5 2 -5 20 0 42 12 21 11 41 17 45 14 3 -4 5 -31 4 -61 -1 -41 2 -54 13 -54 8 0 14 -7 14 -16 0 -9 37 -52 82 -95 92 -88 109 -94 231 -86 75 5 107 24 107 63 0 32 -44 80 -80 87 -22 5 -35 16 -47 42 -16 34 -16 36 3 49 10 8 22 12 26 10 3 -2 12 11 19 29 7 20 23 39 38 45 22 10 23 10 3 6 -22 -5 -23 -4 -12 16 16 29 9 33 -31 16 -19 -7 -49 -17 -68 -21 -33 -7 -33 -6 -27 19 8 30 8 30 -31 11 -43 -21 -93 -30 -93 -16 0 6 5 11 10 11 6 0 10 5 10 10 0 6 -15 4 -36 -5 -20 -8 -44 -15 -53 -15 -14 1 -13 3 3 15 10 7 16 19 14 25 -2 6 -21 -7 -42 -29z m59 -167 c10 -14 15 -15 35 -3 18 11 24 11 27 2 6 -16 25 -17 41 -1 6 6 27 12 46 13 28 0 37 -5 51 -32 10 -18 27 -35 39 -38 59 -17 88 -53 78 -97 -6 -29 -20 -20 -16 10 3 23 2 23 -6 -5 -9 -27 -16 -33 -39 -33 -25 0 -27 3 -23 29 2 16 0 31 -5 34 -5 3 -7 -7 -5 -23 6 -40 -31 -55 -100 -41 -40 9 -60 23 -123 85 -71 71 -93 105 -60 92 8 -3 21 1 27 9 17 18 18 18 33 -1z"/><path d="M2127 788 c-7 -24 -1 -38 14 -38 6 0 7 6 2 13 -4 6 -6 20 -5 30 4 24 -5 21 -11 -5z"/><path d="M2162 790 c0 -14 2 -19 5 -12 2 6 2 18 0 25 -3 6 -5 1 -5 -13z"/><path d="M1960 788 c0 -9 5 -20 10 -23 13 -8 13 5 0 25 -8 13 -10 13 -10 -2z"/><path d="M1622 750 l-23 -30 30 0 c16 0 42 5 57 10 15 6 30 8 33 4 3 -4 0 -9 -6 -11 -15 -5 -18 -33 -4 -33 5 0 17 3 26 6 12 5 13 9 5 14 -9 6 -9 13 -1 29 14 25 15 25 -39 6 -23 -8 -51 -15 -62 -15 -18 0 -18 1 -4 16 14 14 22 34 13 34 -2 0 -13 -13 -25 -30z"/><path d="M1770 719 c0 -5 5 -7 10 -4 6 3 10 8 10 11 0 2 -4 4 -10 4 -5 0 -10 -5 -10 -11z"/><path d="M1890 714 c-23 -14 -23 -14 -2 -9 13 4 22 2 22 -4 0 -6 10 -10 23 -10 17 1 18 2 4 6 -14 4 -16 8 -6 19 16 19 -8 18 -41 -2z"/></g></g>
<g transform="translate(1090.1,-710.3)"><g transform="translate(0,1024) scale(0.1,-0.1)"><path d="M3777 2010 c-26 -16 -47 -25 -47 -19 0 20 -38 -11 -66 -55 -15 -24 -33 -42 -39 -39 -7 2 -18 -17 -28 -49 -8 -29 -16 -44 -17 -33 -1 20 -1 20 -15 1 -18 -23 -20 -121 -5 -162 9 -24 9 -25 -5 -14 -8 7 -18 10 -21 7 -12 -11 7 -75 31 -112 24 -34 24 -36 5 -30 -32 10 -24 -11 23 -62 23 -26 34 -44 25 -40 -30 11 -21 -19 12 -43 16 -11 46 -27 67 -34 l37 -13 -27 -7 c-15 -3 -27 -10 -27 -15 0 -13 57 -31 99 -31 26 0 32 -3 21 -10 -23 -14 12 -24 56 -15 l37 6 -32 -38 c-34 -41 -39 -55 -16 -47 8 4 15 1 15 -7 0 -7 16 5 36 27 19 21 33 31 30 22 -8 -25 4 -22 55 11 24 17 46 27 49 24 3 -3 -2 -8 -10 -11 -8 -3 -37 -27 -64 -54 -27 -26 -51 -48 -52 -48 -2 0 -14 4 -28 10 -23 8 -28 6 -51 -28 -29 -42 -31 -54 -10 -46 14 6 20 -6 16 -30 -3 -13 20 -36 30 -30 5 3 9 0 9 -5 0 -10 -14 -15 -32 -12 -15 2 -8 -27 8 -33 9 -4 15 -9 12 -11 -3 -3 -20 2 -38 12 l-33 16 24 20 c16 14 20 21 11 24 -10 4 -10 8 -1 19 15 18 9 18 -30 -2 -30 -15 -35 -39 -6 -27 33 12 12 -16 -22 -31 -21 -9 -44 -20 -51 -24 -8 -4 -24 -39 -36 -77 -13 -39 -39 -101 -58 -140 -20 -38 -39 -84 -43 -102 -9 -45 11 -110 40 -129 46 -30 135 6 149 59 8 34 102 119 124 113 9 -3 33 -1 52 3 30 8 32 9 10 12 -79 8 -79 8 -138 -53 -31 -33 -60 -67 -63 -76 -10 -26 -41 -49 -75 -56 -79 -17 -111 88 -58 189 14 28 42 95 62 149 35 94 39 100 75 112 39 14 48 9 20 -11 -27 -20 -5 -35 50 -36 29 0 47 -3 40 -5 -7 -3 -10 -11 -7 -19 3 -7 -3 -15 -13 -18 -10 -3 0 -5 22 -6 l40 -2 -23 -19 -24 -20 26 -11 c19 -9 35 -9 61 -2 29 9 35 9 35 -3 0 -12 4 -12 20 -4 11 6 20 17 20 25 0 8 7 15 15 15 32 0 166 72 175 93 5 12 18 33 29 47 17 20 21 22 21 8 0 -23 11 -23 38 2 18 17 22 18 22 5 0 -8 -6 -24 -12 -35 -11 -17 -10 -22 1 -29 8 -5 11 -16 6 -30 -8 -25 3 -27 21 -3 12 16 14 16 28 -3 15 -20 16 -20 41 10 l25 30 -6 -36 c-7 -42 9 -60 26 -29 14 26 28 25 33 -2 3 -22 4 -22 13 -3 5 11 19 21 32 23 20 2 22 -1 17 -20 -8 -25 -8 -26 -6 -45 3 -31 68 -5 96 38 11 16 23 29 28 29 11 0 9 -38 -3 -45 -5 -3 -10 -13 -10 -21 0 -12 5 -12 33 2 17 9 38 25 45 35 21 30 34 22 17 -11 -19 -36 -19 -40 1 -40 8 0 29 14 46 30 l30 30 -7 -30 c-8 -37 8 -40 43 -7 l24 22 -8 -29 c-6 -26 -5 -28 15 -21 14 4 21 2 21 -7 0 -10 3 -9 11 2 8 12 12 12 16 2 4 -10 8 -10 21 0 12 9 11 6 -2 -10 -19 -21 -19 -23 -1 -42 10 -12 24 -19 31 -16 7 3 15 -2 18 -10 10 -25 7 -31 -14 -37 -11 -3 -20 -11 -20 -17 0 -8 14 -10 45 -7 43 6 63 -7 30 -19 -26 -10 -52 -67 -47 -104 3 -26 -2 -40 -15 -53 -23 -20 -120 -37 -109 -19 5 9 0 9 -18 2 -37 -14 -82 5 -96 41 -10 23 -10 41 3 89 10 43 12 60 3 61 -10 1 81 28 96 29 4 0 5 -7 2 -15 -7 -18 13 -20 50 -5 21 7 26 6 26 -5 0 -8 5 -15 10 -15 12 0 13 30 1 48 -6 10 -10 10 -21 -3 -17 -20 -44 -20 -36 1 6 17 8 17 -64 -3 -22 -6 -24 -5 -11 10 17 21 8 22 -23 2 -13 -8 -33 -14 -46 -13 -12 2 -25 -3 -27 -10 -3 -8 1 -10 13 -5 13 5 16 3 11 -10 -3 -8 -2 -17 2 -19 5 -2 4 -29 -2 -60 -12 -67 3 -115 40 -129 13 -5 57 -9 97 -9 99 0 126 20 126 91 0 38 4 52 20 61 11 7 20 18 20 25 0 17 39 26 55 13 12 -10 15 -10 15 0 0 6 14 0 31 -14 32 -27 49 -33 49 -16 0 6 15 3 33 -6 17 -10 46 -20 62 -24 17 -4 39 -11 49 -16 13 -5 17 -4 13 3 -4 6 -28 16 -54 22 -27 7 -65 23 -85 36 -33 22 -37 23 -40 7 -3 -14 -10 -10 -38 18 -19 20 -31 27 -27 17 12 -31 -16 -14 -42 26 -18 27 -27 34 -33 25 -11 -16 -38 16 -38 45 0 20 0 20 18 0 21 -24 42 -19 42 11 0 34 12 39 33 14 17 -21 18 -21 8 -2 -9 19 -7 23 14 28 24 6 30 19 26 59 -3 25 6 21 23 -10 l14 -28 0 25 c0 68 5 90 18 79 20 -16 29 9 10 30 -10 11 -14 25 -10 36 6 15 3 17 -19 11 -17 -4 -31 -1 -41 9 -8 9 -21 14 -28 13 -16 -4 -23 39 -9 66 5 12 21 49 34 83 l25 63 -27 -6 c-14 -4 -34 -11 -43 -15 -48 -25 -39 10 18 72 13 14 24 29 24 33 0 5 -27 6 -60 3 -33 -4 -60 -4 -60 0 0 4 17 24 37 45 38 39 36 43 -15 50 -32 4 -30 20 7 38 37 18 39 26 6 34 -25 6 -35 26 -13 26 6 0 22 9 34 21 13 12 24 16 28 10 4 -5 -3 -15 -14 -21 -27 -14 -16 -30 21 -30 34 0 37 -12 9 -38 l-21 -19 30 -13 c17 -7 37 -10 46 -6 21 8 19 -6 -6 -49 -24 -40 -21 -52 9 -36 12 6 30 11 41 11 18 0 19 -2 5 -27 -15 -29 -18 -53 -8 -53 4 0 21 9 39 20 29 18 33 19 39 4 3 -9 3 -20 0 -26 -4 -6 1 -8 11 -6 10 1 20 9 23 17 3 8 0 11 -6 7 -6 -3 -13 7 -17 25 -8 35 -4 42 18 33 13 -5 14 -10 6 -25 -10 -20 4 -28 16 -9 4 6 15 8 24 5 10 -3 29 3 42 14 31 24 80 45 147 60 90 22 76 35 -33 28 -62 -3 -93 -2 -84 4 7 5 55 9 106 9 83 0 94 2 121 25 17 14 37 25 45 25 14 0 14 4 2 34 -17 40 -13 135 6 146 9 6 7 17 -9 45 -31 52 -27 54 16 12 l38 -38 28 22 27 21 -21 23 c-12 13 -19 28 -16 33 3 6 -1 13 -10 16 -8 3 -12 2 -9 -4 11 -18 -13 -8 -63 26 -2 2 11 24 30 51 l33 48 5 -55 c4 -44 6 -50 12 -30 12 40 9 87 -6 99 -11 9 -32 1 -97 -39 -82 -49 -106 -59 -94 -41 3 6 -17 7 -50 4 -54 -6 -55 -5 -105 41 -81 76 -120 59 -142 -64 -9 -44 -17 -64 -32 -72 -12 -6 -24 -17 -29 -24 -4 -7 -21 -15 -37 -19 -29 -6 -52 -25 -31 -25 6 0 11 -4 11 -9 0 -15 -66 -41 -107 -41 l-38 0 25 -20 25 -19 -60 1 c-37 1 -82 11 -117 25 -64 26 -72 27 -63 13 9 -14 -2 -12 -28 4 -32 22 -140 48 -147 36 -3 -6 -31 -5 -75 1 -67 9 -132 5 -165 -11 -8 -4 -46 -13 -83 -18 -38 -6 -77 -18 -86 -26 -11 -10 -36 -16 -70 -16 -45 0 -57 4 -82 30 -17 17 -36 27 -44 23 -12 -4 -15 4 -15 38 0 32 -3 40 -10 29 -5 -8 -10 -10 -10 -4 0 5 7 19 15 30 20 26 19 48 -1 40 -15 -6 -15 -4 0 18 21 33 22 64 1 46 -8 -7 -15 -9 -15 -4 0 4 -7 -1 -16 -12 -8 -10 -13 -14 -10 -7 10 19 -5 45 -24 40 -13 -3 -16 0 -13 14 7 24 -21 35 -53 21 -21 -10 -24 -9 -24 7 0 10 -3 20 -6 24 -9 9 -61 -20 -73 -40 -9 -16 -10 -16 -11 5 0 37 -43 23 -68 -23 -17 -30 -14 0 3 41 8 20 12 41 8 48 -3 6 -3 8 2 4 4 -4 20 1 34 11 14 10 33 22 41 26 13 8 13 7 1 -8 -22 -28 -9 -28 44 -2 26 14 58 25 69 24 12 0 15 -3 9 -6 -25 -10 -12 -23 22 -23 28 0 35 -4 35 -19 0 -23 19 -39 22 -19 1 7 4 -12 8 -42 l7 -55 -1 65 c-1 64 -1 64 -33 74 -18 5 -33 15 -33 22 0 18 -41 18 -85 0 -19 -8 -35 -11 -35 -6 0 4 6 11 13 13 8 4 7 6 -4 6 -8 1 -36 -12 -62 -29z m1593 -110 c17 -9 90 -101 90 -114 0 -3 -9 -6 -20 -6 -13 0 -18 -5 -14 -14 4 -10 -1 -15 -13 -15 -45 -2 -69 -7 -88 -19 -18 -12 -18 -13 -1 -8 16 6 17 4 6 -9 -25 -31 -32 -15 -28 63 5 80 20 132 38 132 6 0 20 -4 30 -10z m-1619 -126 c14 -17 -2 -25 -17 -9 -15 15 -19 47 -6 59 4 4 9 -3 10 -16 2 -12 8 -28 13 -34z m-91 -8 c0 -22 29 -59 31 -40 1 13 17 -38 18 -60 1 -18 0 -18 -19 -1 -28 25 -53 12 -48 -25 4 -24 2 -27 -9 -18 -14 11 -43 72 -43 89 0 5 11 2 25 -7 l25 -16 0 51 c0 28 5 51 10 51 6 0 10 -11 10 -24z m1657 -98 c-3 -8 -6 -5 -6 6 -1 11 2 17 5 13 3 -3 4 -12 1 -19z m352 -14 c3 -16 1 -17 -13 -5 -19 16 -21 34 -3 29 6 -3 14 -13 16 -24z m-993 -30 c13 -3 24 -10 24 -15 0 -10 -61 9 -75 24 -7 7 -4 8 8 3 11 -3 30 -9 43 -12z m947 -58 c3 -8 1 -16 -5 -18 -7 -3 -9 -15 -4 -31 10 -40 43 -36 55 6 l9 32 1 -32 c1 -27 -3 -34 -25 -39 -33 -8 -73 13 -80 43 -10 39 36 74 49 39z m-558 -6 c3 -5 1 -10 -4 -10 -6 0 -11 5 -11 10 0 6 2 10 4 10 3 0 8 -4 11 -10z m224 -22 c8 3 11 0 7 -7 -10 -16 -31 -14 -47 6 -13 15 -12 15 6 6 11 -6 26 -8 34 -5z m-129 -58 c0 -5 -4 -10 -10 -10 -5 0 -10 5 -10 10 0 6 5 10 10 10 6 0 10 -4 10 -10z m52 -62 c-7 -7 -12 -8 -12 -2 0 14 12 26 19 19 2 -3 -1 -11 -7 -17z m178 -17 c-8 -5 -26 -11 -40 -15 -21 -5 -20 -3 5 9 32 15 60 20 35 6z m-190 -5 c0 -2 -8 -10 -17 -17 -16 -13 -17 -12 -4 4 13 16 21 21 21 13z m84 -28 c-3 -5 -9 -6 -14 -3 -4 3 -11 -1 -13 -7 -4 -8 -6 -7 -6 4 -1 11 6 16 18 15 11 0 17 -5 15 -9z m-1254 -23 c-7 -8 -17 -15 -22 -15 -6 0 -5 7 2 15 7 8 17 15 22 15 6 0 5 -7 -2 -15z m-16 -58 c-2 -7 -14 -18 -25 -25 -22 -14 -21 -6 4 26 12 16 28 16 21 -1z m-44 -7 c0 -5 -5 -10 -11 -10 -5 0 -7 5 -4 10 3 6 8 10 11 10 2 0 4 -4 4 -10z m160 -45 c-13 -14 -28 -25 -33 -25 -6 0 0 11 13 25 13 14 28 25 33 25 6 0 0 -11 -13 -25z m-239 -28 l-24 -22 19 27 c10 14 21 24 23 22 3 -3 -6 -15 -18 -27z m78 12 c-26 -20 -38 -17 -21 4 7 8 19 14 28 14 12 0 10 -5 -7 -18z m281 -63 c0 -2 -8 -10 -17 -17 -16 -13 -17 -12 -4 4 13 16 21 21 21 13z m-314 -73 c-10 -10 -19 5 -10 18 6 11 8 11 12 0 2 -7 1 -15 -2 -18z m264 -33 c0 -5 -5 -10 -11 -10 -5 0 -7 5 -4 10 3 6 8 10 11 10 2 0 4 -4 4 -10z m30 -40 c0 -5 -5 -10 -11 -10 -5 0 -7 5 -4 10 3 6 8 10 11 10 2 0 4 -4 4 -10z m-60 -70 c0 -5 -5 -10 -11 -10 -5 0 -7 5 -4 10 3 6 8 10 11 10 2 0 4 -4 4 -10z m-10 -40 c-8 -5 -22 -10 -30 -10 -13 0 -13 1 0 10 8 5 22 10 30 10 13 0 13 -1 0 -10z m747 -72 c-3 -8 -6 -5 -6 6 -1 11 2 17 5 13 3 -3 4 -12 1 -19z m76 -68 c3 -11 1 -18 -4 -14 -5 3 -9 12 -9 20 0 20 7 17 13 -6z"/><path d="M5805 1760 c3 -5 8 -10 11 -10 2 0 4 5 4 10 0 6 -5 10 -11 10 -5 0 -7 -4 -4 -10z"/><path d="M5815 1718 c-39 -37 -45 -52 -15 -43 16 5 20 2 20 -19 0 -14 -4 -26 -8 -26 -5 0 -9 -6 -10 -12 0 -7 -4 -29 -7 -49 -7 -38 4 -57 48 -84 11 -7 15 -17 11 -32 -5 -19 -9 -21 -28 -11 -21 11 -21 11 -2 -11 19 -21 19 -22 -2 -50 -20 -28 -20 -29 -2 -24 24 6 24 5 5 -39 -16 -41 -64 -68 -118 -68 -20 0 -39 -5 -43 -11 -4 -7 -1 -10 7 -7 8 3 23 -2 33 -11 18 -15 19 -15 13 0 -4 13 3 18 32 23 20 3 46 16 57 28 19 21 29 36 77 107 9 14 15 31 12 38 -2 7 0 15 5 18 16 10 11 25 -5 19 -8 -4 -15 -2 -15 4 0 6 6 12 13 15 9 3 8 9 -4 23 -24 27 -33 78 -18 102 10 17 8 27 -19 71 l-32 51 28 14 c15 9 22 15 15 16 -7 0 -28 -15 -48 -32z m16 -195 c-9 -15 -10 -14 -5 8 3 15 1 30 -5 34 -6 3 -8 11 -4 18 4 7 10 1 16 -16 5 -17 5 -33 -2 -44z m49 -109 c0 -24 -25 -62 -35 -52 -4 4 -1 27 6 52 13 45 29 45 29 0z"/><path d="M5503 1365 c-56 -17 -130 -61 -143 -85 -25 -48 7 -56 40 -10 24 34 41 39 33 10 -7 -28 15 -25 28 3 6 12 30 35 55 51 73 46 68 57 -13 31z"/><path d="M5495 1300 c-14 -16 -15 -20 -4 -20 16 0 39 19 39 32 0 14 -16 9 -35 -12z"/><path d="M5700 1190 c0 -5 7 -10 15 -10 8 0 15 5 15 10 0 6 -7 10 -15 10 -8 0 -15 -4 -15 -10z"/><path d="M5735 1118 c1 -13 6 -21 11 -19 10 3 7 21 -5 34 -4 4 -7 -3 -6 -15z"/><path d="M5704 1114 c3 -9 6 -21 7 -27 0 -7 4 -3 8 8 9 22 5 35 -11 35 -5 0 -7 -7 -4 -16z"/><path d="M5680 1023 c4 -48 5 -52 8 -20 2 20 7 37 13 37 5 0 4 9 -3 20 -20 31 -23 24 -18 -37z"/><path d="M5717 1046 c-4 -15 -6 -31 -2 -34 10 -10 16 6 13 35 l-3 28 -8 -29z"/><path d="M5263 967 c8 -20 -13 -23 -32 -4 -10 10 -11 9 -6 -5 4 -10 11 -18 15 -18 5 0 15 -3 24 -6 19 -7 23 31 4 42 -8 5 -9 2 -5 -9z"/><path d="M5636 954 c-4 -11 -3 -20 3 -22 6 -2 11 -10 11 -18 0 -8 4 -14 9 -14 12 0 25 39 17 47 -3 4 -6 0 -6 -8 -1 -8 -7 -3 -14 10 -12 21 -14 22 -20 5z"/><path d="M5565 855 c-4 -11 -10 -24 -13 -29 -3 -5 0 -6 6 -2 7 4 12 2 12 -3 0 -17 17 -13 24 5 3 8 2 12 -3 9 -5 -3 -11 5 -14 17 -3 22 -4 22 -12 3z"/><path d="M5475 830 c10 -11 20 -20 23 -20 3 0 -3 9 -13 20 -10 11 -20 20 -23 20 -3 0 3 -9 13 -20z"/><path d="M4239 777 c-63 -49 -109 -71 -94 -47 10 16 -1 12 -41 -15 -20 -14 -46 -25 -58 -25 -17 0 -18 2 -6 10 21 14 8 12 -30 -4 l-32 -13 26 -7 c18 -4 43 0 73 14 52 23 57 24 48 10 -9 -14 8 -13 23 2 22 22 30 -9 16 -64 -5 -21 -3 -28 9 -28 8 0 20 -13 27 -30 7 -16 20 -32 30 -35 10 -3 34 -23 54 -45 51 -57 69 -63 179 -63 79 1 102 4 117 18 41 37 15 95 -55 125 -25 11 -46 27 -50 40 -7 22 10 51 28 47 6 -1 22 19 35 46 25 50 28 52 52 37 12 -7 12 -12 -4 -29 -19 -21 -19 -21 2 -21 11 0 24 5 28 12 4 7 3 8 -5 4 -8 -6 -10 -1 -5 18 10 40 -1 46 -54 30 -96 -29 -94 -29 -86 0 l6 26 -57 -26 c-59 -26 -77 -26 -55 1 8 9 8 15 2 15 -6 0 -14 -4 -17 -10 -10 -17 -35 -12 -28 6 5 14 2 14 -31 0 -41 -17 -46 -12 -13 15 38 31 12 21 -34 -14z m11 -141 c0 -23 20 -29 39 -12 16 14 18 14 34 -5 l18 -20 37 21 c24 14 38 18 40 11 3 -9 8 -9 17 -1 10 8 18 2 34 -25 12 -21 28 -35 40 -35 11 0 27 -3 36 -6 22 -9 45 -57 38 -82 -8 -31 -21 -27 -17 6 2 16 1 19 -2 7 -4 -11 -10 -25 -15 -31 -11 -14 -159 -17 -193 -5 -26 11 -156 135 -156 151 0 5 7 10 15 10 8 0 15 7 15 15 0 8 5 15 10 15 6 0 10 -6 10 -14z"/><path d="M4491 484 c0 -11 3 -14 6 -6 3 7 2 16 -1 19 -3 4 -6 -2 -5 -13z"/><path d="M5501 775 c19 -23 53 -69 74 -104 27 -43 49 -67 72 -76 48 -20 72 -97 38 -125 -13 -11 -14 -10 -9 5 5 11 -2 8 -19 -9 -31 -31 -89 -38 -66 -8 11 14 11 15 -1 5 -31 -28 -120 -2 -180 52 -14 12 -43 26 -65 29 -29 5 -36 4 -25 -3 8 -6 24 -11 34 -11 10 0 38 -16 62 -36 59 -47 121 -67 194 -62 64 5 95 23 102 63 7 37 -18 83 -57 106 -31 19 -123 142 -119 159 1 3 5 16 9 30 7 24 7 24 -9 5 -9 -12 -15 -15 -16 -7 0 7 -5 10 -10 7 -6 -4 -19 -1 -28 7 -9 7 -1 -5 19 -27z"/><path d="M4855 750 c3 -5 8 -10 11 -10 2 0 4 5 4 10 0 6 -5 10 -11 10 -5 0 -7 -4 -4 -10z"/><path d="M4660 722 c0 -10 -5 -23 -12 -30 -9 -9 -8 -12 8 -12 10 0 26 5 34 10 13 8 13 10 -1 10 -9 0 -16 6 -16 14 0 8 6 12 14 9 7 -3 13 0 13 6 0 6 -9 11 -20 11 -13 0 -20 -7 -20 -18z"/><path d="M4738 716 c-24 -17 -23 -22 5 -22 23 0 39 14 31 28 -7 11 -16 10 -36 -6z"/></g></g>
</svg>
