<svg style="color:#3a352c" xmlns="http://www.w3.org/2000/svg" viewBox="0 0 225 213" width="225" height="213">
<path fill="currentColor" fill-rule="evenodd" d="M73 2 77 2 78 4 80 4 83 8 85 8 93 16 101 15 101 16 121 17 123 14 125 14 126 12 128 12 129 10 131 10 132 8 138 5 142 5 144 7 145 17 146 17 145 34 150 39 149 43 153 46 153 48 157 52 157 56 153 56 153 57 155 58 156 62 162 69 162 71 158 70 158 72 161 75 161 79 167 82 166 84 171 90 181 91 181 92 205 97 223 132 222 138 220 138 219 140 207 146 206 169 210 170 208 174 205 174 204 176 198 178 197 180 192 181 191 183 166 195 165 197 155 202 152 202 149 205 146 205 142 208 139 208 135 211 120 209 120 208 116 208 113 206 101 204 98 202 92 202 86 199 70 196 70 195 56 192 56 191 46 189 40 186 32 185 32 184 29 184 29 183 26 183 20 180 19 178 19 175 20 175 19 173 19 140 8 143 8 144 3 144 2 141 20 105 53 92 52 91 53 87 55 86 57 80 60 78 60 75 50 80 50 78 58 74 57 73 58 69 57 68 55 69 54 66 51 66 48 68 45 68 45 67 54 64 56 61 57 55 59 54 59 52 56 52 56 49 58 45 60 44 60 42 62 41 62 39 66 36 64 34 69 30 69 15 70 15 70 8 73 2Z M94 34 95 34 95 40 97 42 97 46 99 47 101 51 100 57 103 58 105 61 107 61 110 64 110 66 114 67 114 69 112 70 116 71 117 75 124 78 127 82 130 82 133 85 136 84 134 82 141 82 142 84 144 84 145 76 149 78 151 77 151 80 153 81 153 84 154 84 154 94 152 94 149 88 146 88 148 99 143 109 139 101 138 101 138 107 134 113 132 113 132 110 128 110 127 113 123 113 121 112 120 108 114 109 112 107 104 106 104 105 93 106 85 111 85 109 87 109 85 105 83 105 84 106 83 107 79 102 75 100 68 100 67 97 69 95 64 96 63 98 61 98 61 100 58 101 59 92 62 86 58 87 57 89 55 89 56 86 58 85 58 83 61 81 62 78 69 79 71 77 72 72 69 72 69 73 68 72 74 69 70 69 71 68 70 66 71 65 73 66 76 60 82 58 85 55 85 48 87 47 87 45 93 38 94 34Z M64 102 75 103 82 109 82 111 80 111 79 118 77 119 76 122 70 123 67 117 66 119 67 123 62 123 59 118 60 112 58 113 58 120 55 118 56 107 64 102Z M97 108 111 109 115 111 116 113 123 115 129 120 130 125 125 125 125 126 128 126 128 127 125 127 125 126 115 125 114 123 112 123 103 130 99 130 97 126 95 126 95 130 90 129 88 126 88 120 90 118 88 118 86 122 86 126 85 126 83 123 84 117 89 111 93 109 97 109 97 108Z M74 4 87 15 87 18 85 17 85 22 78 25 78 27 75 27 74 29 72 29 71 17 72 17 72 8 74 4Z M139 7 142 8 142 12 143 12 143 29 142 29 141 37 138 37 133 32 128 31 128 26 130 25 124 26 124 23 128 19 128 17 139 7Z M82 30 85 32 83 38 81 37 80 34 78 34 79 32 82 32 82 30Z M66 42 69 42 69 43 72 42 72 44 70 45 71 55 64 52 65 51 64 49 66 48 64 44 66 42Z M76 44 77 46 75 48 75 53 76 55 80 57 76 57 72 53 72 48 76 44Z M115 47 119 49 120 53 117 58 113 59 113 57 115 58 114 56 116 54 115 47Z M105 50 106 50 106 56 109 58 112 58 111 60 105 58 106 56 104 57 105 50Z M147 52 151 55 152 59 147 58 148 57 148 55 146 54 147 52Z M84 61 92 61 92 62 87 65 87 63 84 61Z M154 63 156 64 158 68 151 67 151 65 153 65 154 63Z M152 68 155 69 156 72 158 73 158 76 156 79 157 88 156 88 156 84 151 79 152 78 151 76 148 77 147 75 144 75 144 77 142 77 144 79 144 82 142 82 140 80 142 79 141 77 139 79 138 77 135 77 134 75 132 75 132 73 135 74 138 72 138 70 141 70 141 71 149 72 152 74 152 76 154 76 154 71 152 74 152 71 153 71 152 68Z M118 72 120 72 119 74 125 74 125 76 129 76 129 77 132 76 138 81 134 81 135 84 133 85 132 83 130 83 130 81 126 80 126 78 122 77 121 75 118 75 117 74 118 72Z M80 80 83 80 87 84 82 83 80 80Z M173 92 204 99 222 136 178 158 177 160 161 167 160 169 157 169 139 133 136 132 136 134 139 140 141 141 156 171 160 171 176 163 177 161 191 155 192 153 204 148 204 171 203 172 178 184 177 186 165 191 164 193 139 205 136 208 124 207 121 205 109 203 106 201 80 195 77 193 73 193 70 191 66 191 63 189 59 189 56 187 48 186 45 184 37 183 37 182 26 180 22 178 22 175 21 175 21 107 25 106 24 108 27 108 27 109 50 113 53 115 53 119 57 123 60 123 62 125 75 125 76 123 79 122 79 120 81 120 81 124 83 128 88 129 91 132 97 132 97 131 103 132 103 131 106 131 109 127 116 127 116 128 125 129 125 130 137 131 181 109 184 109 198 101 201 101 201 99 198 99 196 101 193 101 179 108 175 100 175 94 173 92Z M55 93 56 93 55 95 49 97 55 102 55 105 52 111 44 110 47 108 44 104 40 103 41 101 35 104 32 104 34 105 34 107 25 106 27 104 40 100 44 97 53 95 55 93Z M151 96 152 98 156 96 156 98 158 98 159 100 159 107 155 106 156 115 153 116 153 113 151 113 152 120 149 122 147 122 148 119 143 118 145 120 145 124 135 129 134 127 137 127 138 125 133 125 128 120 128 118 120 114 119 111 114 110 114 109 120 109 120 111 123 113 127 113 128 110 132 110 132 113 139 110 136 116 143 116 143 117 148 118 147 113 145 111 145 107 147 106 151 96Z M103 106 108 106 113 109 104 108 103 106Z M17 113 19 113 18 114 18 125 19 125 18 136 19 137 5 142 5 139 16 118 17 113Z M135 134 134 134 134 169 133 169 133 172 134 172 133 173 133 206 135 206 135 165 136 165 136 134 135 134Z M206 169 210 170 208 174 205 174 204 176 198 178 197 180 192 181 191 183 183 186 182 188 141 208 142 206 176 189 177 187 187 183 188 181 202 175 203 173 206 172 206 169Z M24 181 37 184 40 186 48 187 51 189 59 190 62 192 70 193 70 194 84 197 87 199 91 199 94 201 102 202 105 204 113 205 113 206 120 207 120 208 116 208 116 207 101 204 98 202 93 202 93 201 89 201 86 199 70 196 70 195 56 192 56 191 46 189 40 186 32 185 24 181Z"></path>
</svg>